<?xml version="1.0" encoding="UTF-8" standalone="no"?>
<!-- Created with Inkscape (http://www.inkscape.org/) -->

<svg
   xmlns:dc="http://purl.org/dc/elements/1.1/"
   xmlns:cc="http://creativecommons.org/ns#"
   xmlns:rdf="http://www.w3.org/1999/02/22-rdf-syntax-ns#"
   xmlns:svg="http://www.w3.org/2000/svg"
   xmlns="http://www.w3.org/2000/svg"
   xmlns:sodipodi="http://sodipodi.sourceforge.net/DTD/sodipodi-0.dtd"
   xmlns:inkscape="http://www.inkscape.org/namespaces/inkscape"
   width="210mm"
   height="297mm"
   viewBox="0 0 744.09448819 1052.3622047"
   id="svg2"
   version="1.1"
   inkscape:version="0.91 r13725"
   sodipodi:docname="google_translate.svg"
   inkscape:export-filename="C:\nobackup\path4355.png"
   inkscape:export-xdpi="114.17988"
   inkscape:export-ydpi="114.17988">
  <defs
     id="defs4" />
  <sodipodi:namedview
     id="base"
     pagecolor="#ffffff"
     bordercolor="#666666"
     borderopacity="1.0"
     inkscape:pageopacity="0.0"
     inkscape:pageshadow="2"
     inkscape:zoom="1.8626667"
     inkscape:cx="372.04724"
     inkscape:cy="876.49558"
     inkscape:document-units="px"
     inkscape:current-layer="layer3"
     showgrid="false"
     inkscape:window-width="1920"
     inkscape:window-height="1132"
     inkscape:window-x="-8"
     inkscape:window-y="-8"
     inkscape:window-maximized="1" />
  <metadata
     id="metadata7">
    <rdf:RDF>
      <cc:Work
         rdf:about="">
        <dc:format>image/svg+xml</dc:format>
        <dc:type
           rdf:resource="http://purl.org/dc/dcmitype/StillImage" />
        <dc:title></dc:title>
      </cc:Work>
    </rdf:RDF>
  </metadata>
  <g
     inkscape:label="Layer 1"
     inkscape:groupmode="layer"
     id="layer1">
    <g
       inkscape:groupmode="layer"
       id="layer3"
       inkscape:label="Layer 3">
      <path
         style="fill:#ffffff;fill-rule:evenodd;stroke:none;stroke-width:1px;stroke-linecap:butt;stroke-linejoin:miter;stroke-opacity:1;fill-opacity:1"
         d="m 195,113.79078 78.57143,268.57142 123.57143,0.71429 28.57143,-17.85714 1.42857,-232.14286 -20.71429,-19.28571 z"
         id="path4362"
         inkscape:connector-curvature="0" />
    </g>
    <g
       inkscape:groupmode="layer"
       id="layer2"
       inkscape:label="Layer 2">
      <rect
         style="fill:none;fill-opacity:0.93951613;stroke:#000000;stroke-width:11;stroke-miterlimit:4;stroke-dasharray:none;stroke-dashoffset:0;stroke-opacity:1"
         id="rect4155"
         width="61.42857"
         height="61.42857"
         x="341.92856"
         y="164.07649" />
      <rect
         style="fill:#050505;fill-opacity:0.93951613;stroke:none;stroke-width:11;stroke-miterlimit:4;stroke-dasharray:none;stroke-dashoffset:0;stroke-opacity:1"
         id="rect4157"
         width="26.071428"
         height="26.071428"
         x="359.60712"
         y="181.68364" />
      <rect
         style="fill:none;fill-opacity:0.93951613;stroke:#000000;stroke-width:11;stroke-miterlimit:4;stroke-dasharray:none;stroke-dashoffset:0;stroke-opacity:1"
         id="rect4155-5"
         width="61.42857"
         height="61.42857"
         x="254.21667"
         y="164.07649" />
      <rect
         style="fill:#050505;fill-opacity:0.93951613;stroke:none;stroke-width:11;stroke-miterlimit:4;stroke-dasharray:none;stroke-dashoffset:0;stroke-opacity:1"
         id="rect4157-6"
         width="26.071428"
         height="26.071428"
         x="272.25"
         y="181.82649" />
      <rect
         style="fill:none;fill-opacity:0.93951613;stroke:#000000;stroke-width:11;stroke-miterlimit:4;stroke-dasharray:none;stroke-dashoffset:0;stroke-opacity:1"
         id="rect4155-7"
         width="61.42857"
         height="61.42857"
         x="254.21667"
         y="250.06647" />
      <rect
         style="fill:#050505;fill-opacity:0.93951613;stroke:none;stroke-width:11;stroke-miterlimit:4;stroke-dasharray:none;stroke-dashoffset:0;stroke-opacity:1"
         id="rect4157-2"
         width="26.071428"
         height="26.071428"
         x="271.54047"
         y="267.74506" />
    </g>
    <g
       style="fill:#000000"
       id="g3348"
       transform="matrix(16.815571,0,0,16.815571,63.585909,19.547778)">
      <path
         id="path3338"
         d="m 0,0 24,0 0,24 -24,0 z m 20,6 -8.82,0 3.82,13 -2,2 7,0 c 0.55,0 1,-0.45 1,-1 L 21,7 C 21,6.45 20.55,6 20,6 Z"
         inkscape:connector-curvature="0"
         style="fill:none" />
      <path
         id="path3340"
         d="M 20,5 10.88,5 10,2 4,2 C 2.9,2 2,2.9 2,4 l 0,13 c 0,1.1 0.9,2 2,2 l 7,0 1,3 8,0 c 1.1,0 2,-0.9 2,-2 L 22,7 C 22,5.9 21.1,5 20,5 Z m 1,15 c 0,0.55 -0.45,1 -1,1 L 13,21 15,19 11.18,6 20,6 c 0.55,0 1,0.45 1,1 z"
         inkscape:connector-curvature="0"
         sodipodi:nodetypes="sccssssccsssssscccsss"
         inkscape:export-xdpi="137.01587"
         inkscape:export-ydpi="137.01587"
         style="fill:#990000;fill-opacity:1" />
      <path
         style="fill:#7b0123;fill-rule:evenodd;stroke:none;stroke-width:0.05946869px;stroke-linecap:butt;stroke-linejoin:miter;stroke-opacity:1;fill-opacity:0.93951613"
         d="m 11.999071,21.979636 2.999707,-2.974418 -3.998572,-0.0075 z"
         id="path4152"
         inkscape:connector-curvature="0" />
    </g>
    <rect
       style="fill:#050505;fill-opacity:0.93951613;stroke:none;stroke-width:11;stroke-miterlimit:4;stroke-dasharray:none;stroke-dashoffset:0;stroke-opacity:1"
       id="rect4195"
       width="18.24744"
       height="18.24744"
       x="336.34192"
       y="244.80092" />
    <rect
       style="fill:#050505;fill-opacity:0.93951613;stroke:none;stroke-width:11;stroke-miterlimit:4;stroke-dasharray:none;stroke-dashoffset:0;stroke-opacity:1"
       id="rect4195-0"
       width="18.24744"
       height="18.24744"
       x="354.79437"
       y="263.20044" />
    <rect
       style="fill:#050505;fill-opacity:0.93951613;stroke:none;stroke-width:11;stroke-miterlimit:4;stroke-dasharray:none;stroke-dashoffset:0;stroke-opacity:1"
       id="rect4195-9"
       width="18.24744"
       height="18.24744"
       x="372.91956"
       y="244.97063" />
    <rect
       style="fill:#050505;fill-opacity:0.93951613;stroke:none;stroke-width:11;stroke-miterlimit:4;stroke-dasharray:none;stroke-dashoffset:0;stroke-opacity:1"
       id="rect4195-3"
       width="18.24744"
       height="18.24744"
       x="391.26614"
       y="263.18823" />
    <rect
       style="fill:#050505;fill-opacity:0.93951613;stroke:none;stroke-width:11;stroke-miterlimit:4;stroke-dasharray:none;stroke-dashoffset:0;stroke-opacity:1"
       id="rect4195-7"
       width="18.24744"
       height="18.24744"
       x="336.3483"
       y="281.16638" />
    <rect
       style="fill:#050505;fill-opacity:0.93951613;stroke:none;stroke-width:11;stroke-miterlimit:4;stroke-dasharray:none;stroke-dashoffset:0;stroke-opacity:1"
       id="rect4195-0-8"
       width="18.24744"
       height="18.24744"
       x="354.80072"
       y="299.56589" />
    <rect
       style="fill:#050505;fill-opacity:0.93951613;stroke:none;stroke-width:11;stroke-miterlimit:4;stroke-dasharray:none;stroke-dashoffset:0;stroke-opacity:1"
       id="rect4195-9-2"
       width="18.24744"
       height="18.24744"
       x="372.9259"
       y="281.33609" />
    <rect
       style="fill:#050505;fill-opacity:0.93951613;stroke:none;stroke-width:11;stroke-miterlimit:4;stroke-dasharray:none;stroke-dashoffset:0;stroke-opacity:1"
       id="rect4195-3-6"
       width="18.24744"
       height="18.24744"
       x="391.27249"
       y="299.55365" />
    <path
       style="fill:#000000;stroke:#000000;stroke-opacity:1"
       d="m 248.72,302.83533 c -0.49219,-0.1528 -1.5277,-0.73933 -2.30115,-1.30339 -2.77533,-2.02402 -11.88603,-11.66586 -15.97914,-16.91072 -2.43798,-3.12398 -3.47082,-4.78833 -5.44515,-8.77442 -1.97608,-3.98962 -2.73511,-5.16753 -8.10946,-12.58469 -4.45284,-6.14541 -5.78623,-8.12408 -7.63728,-11.33333 -1.35086,-2.34206 -1.45653,-2.64519 -1.55995,-4.47446 -0.19056,-3.37036 -1.58008,-6.43085 -6.66699,-14.6843 l -2.79831,-4.54024 -0.18456,2.11125 c -0.3207,3.66859 -0.71625,6.00634 -1.47149,8.6966 -0.61747,2.19949 -0.87676,2.743 -1.64414,3.44626 -0.79697,0.73035 -1.08655,0.83492 -2.31209,0.83492 -1.07378,0 -1.45624,-0.1045 -1.63744,-0.44744 -0.13003,-0.24609 -0.89366,-3.12253 -1.69695,-6.39208 -0.80329,-3.26955 -1.53512,-5.94255 -1.62628,-5.94002 -0.24243,0.006 -5.96247,7.73901 -8.74207,11.8174 l -2.3938,3.5123 0.56316,0.52466 c 0.47351,0.44115 0.56243,0.79783 0.55858,2.24057 -0.005,1.86277 -0.60071,6.23314 -0.92008,6.74989 -0.1088,0.17604 -1.62051,2.15271 -3.35937,4.3926 -3.24471,4.17965 -6.06166,8.19935 -11.20114,15.98371 -4.60379,6.97297 -8.77863,12.0368 -14.58606,17.69203 -6.48874,6.31866 -9.89881,7.98983 -16.36486,8.0199 l -3.09779,0.0144 -1.88802,-1.54531 c -1.03843,-0.84991 -2.41625,-2.24175 -3.06183,-3.09296 l -1.17379,-1.54766 -0.15196,-3.21615 c -0.18664,-3.95015 0.0941,-6.0775 1.09293,-8.28025 0.87683,-1.93381 0.91277,-2.13311 0.38462,-2.13311 -0.66668,0 -2.32483,-1.72582 -3.12765,-3.25527 -1.01689,-1.93728 -1.40818,-3.71314 -1.44512,-6.55859 -0.0296,-2.27852 -0.004,-2.38588 1.15316,-4.76008 0.65088,-1.33595 1.43102,-2.68682 1.73364,-3.00194 0.52288,-0.54448 0.52988,-0.61225 0.14093,-1.36438 -0.69835,-1.35049 -1.12654,-4.03797 -1.30044,-8.16216 l -0.1671,-3.96308 0.95443,-2.00716 c 0.52493,-1.10393 1.36294,-2.45933 1.86223,-3.01198 l 0.9078,-1.00482 -0.93216,-1.9864 c -2.49527,-5.31734 -1.32016,-10.79711 2.83796,-13.23393 0.59894,-0.35101 1.08899,-0.68958 1.08899,-0.7524 0,-0.0628 -0.50252,-0.77707 -1.1167,-1.58723 -1.75639,-2.31684 -2.45209,-3.91797 -2.74584,-6.31949 -0.33352,-2.72663 -0.0228,-4.00854 1.26716,-5.22814 0.87374,-0.82605 3.56422,-2.69161 4.17586,-2.89548 0.15097,-0.0503 -0.41366,-0.77966 -1.25473,-1.62073 -1.58085,-1.58085 -3.28311,-4.59913 -3.56155,-6.315 -0.20265,-1.24873 0.28942,-2.73041 1.44071,-4.33815 1.19868,-1.67394 3.14703,-3.19606 7.03348,-5.4948 1.5486,-0.91596 2.85633,-1.70213 2.90609,-1.74704 0.0498,-0.0449 -0.66644,-0.78971 -1.59154,-1.65509 -0.9251,-0.86538 -1.91561,-1.95141 -2.20114,-2.4134 -0.67515,-1.09243 -1.18911,-5.74727 -0.79583,-7.20778 0.30138,-1.11925 2.28561,-3.18616 4.75372,-4.95181 0.84377,-0.6036 1.57118,-1.1259 1.61648,-1.16067 0.0453,-0.0348 -0.22882,-0.55618 -0.60917,-1.1587 -0.58853,-0.93228 -0.72939,-1.53585 -0.94546,-4.05117 -0.18636,-2.16919 -0.17406,-3.24724 0.0462,-4.0514 0.55188,-2.01504 3.93103,-5.94727 6.67114,-7.76304 l 0.63565,-0.42121 -0.67189,-0.72937 c -1.11512,-1.2105 -1.32878,-1.89241 -1.45136,-4.63231 l -0.11742,-2.62454 0.91545,-1.37877 c 0.5035,-0.75833 1.43828,-1.82091 2.07729,-2.36128 1.65652,-1.40083 6.57049,-4.3037 8.89997,-5.25754 l 1.98155,-0.81138 0,-2.65119 c 0,-1.45815 0.1191,-2.87373 0.26468,-3.14575 0.19776,-0.36952 0.1816,-0.49549 -0.0639,-0.49826 -0.18073,-0.002 -2.28457,-0.11231 -4.67521,-0.24504 -17.07663,-0.94809 -31.1712,-1.3166 -38.19172,-0.99855 -4.83589,0.21908 -6.27391,0.21336 -6.42156,-0.0256 -0.10465,-0.16932 -0.61312,-1.85411 -1.12994,-3.74398 l -0.93966,-3.43611 1.55877,-2.01498 1.55876,-2.01496 2.35076,-0.17126 c 1.40973,-0.1027 2.83011,-0.0617 3.54825,0.10233 1.51112,0.34523 8.33333,0.88479 19.64067,1.55335 19.57508,1.15741 29.1675,1.82383 31.23728,2.17016 0.61405,0.10274 0.80283,-0.0778 1.8666,-1.78447 1.21291,-1.94604 1.92648,-2.42132 3.64176,-2.42563 0.31156,-8.3e-4 0.91958,-0.3466 1.35116,-0.76848 0.67238,-0.65728 0.97879,-0.76705 2.14109,-0.76705 1.35588,0 1.35689,6.1e-4 2.55461,1.54294 0.65901,0.84861 1.45411,1.63768 1.76689,1.75346 0.31278,0.1158 1.6935,0.35714 3.06825,0.53632 2.28709,0.29808 2.54394,0.38811 3.02169,1.05904 0.28717,0.4033 0.74726,0.73327 1.02241,0.73327 0.66219,0 0.999,0.94329 0.999,2.79785 0,1.0091 -0.12311,1.58832 -0.38353,1.80445 -0.84832,0.70404 -0.4172,0.89628 1.80345,0.80417 4.25129,-0.17635 13.05503,0.76575 15.08608,1.61438 0.44927,0.18771 1.02446,0.61652 1.27819,0.95291 l 0.46134,0.6116 1.55201,-0.82227 c 1.54462,-0.81837 5.69867,-2.17781 9.79135,-3.20428 1.39066,-0.34879 2.05979,-0.62618 1.89881,-0.78716 -0.42268,-0.42268 -3.14915,-0.95094 -4.92967,-0.95514 -1.94185,-0.005 -4.32656,0.9 -5.22152,1.98064 -0.44455,0.53677 -0.80623,0.65336 -2.37518,0.76561 -1.69363,0.12118 -1.90648,0.0806 -2.507,-0.47794 -0.9934,-0.92396 -1.16657,-1.62116 -0.82895,-3.33731 0.22121,-1.12437 0.46761,-1.63691 0.96513,-2.00761 0.36746,-0.27378 0.97363,-0.80512 1.34706,-1.18076 0.60649,-0.61009 0.96826,-0.71039 3.39008,-0.93986 l 2.71115,-0.25687 0.8835,-1.07821 c 0.48594,-0.59301 1.02723,-1.39362 1.20287,-1.77912 0.31326,-0.68753 0.3508,-0.69769 1.96696,-0.53211 1.00696,0.10317 1.92531,0.36655 2.36181,0.67737 0.44563,0.31732 1.33097,0.56616 2.3542,0.66171 l 1.63998,0.15315 0.57176,1.18075 c 0.56892,1.17488 2.71891,3.97092 3.91631,5.09312 l 0.62793,0.58849 7.25643,-1.28584 c 20.6436,-3.65803 29.26021,-4.72241 38.19411,-4.71796 5.46029,0.003 6.52416,0.0744 9.65588,0.6503 1.93572,0.356 3.58837,0.71614 3.67256,0.80033 0.18905,0.18905 -1.19696,4.06577 -2.0685,5.78567 -0.3529,0.69642 -1.04822,1.57632 -1.54514,1.95535 l -0.90351,0.68914 -7.52929,0.21288 c -8.79546,0.24867 -11.81611,0.58007 -19.44085,2.13291 -6.81327,1.38757 -10.81806,1.9254 -14.55798,1.95507 -1.55272,0.0123 -3.39289,0.0986 -4.08925,0.19177 l -1.26611,0.16936 -0.30353,1.66194 c -0.16693,0.91406 -0.28752,1.67519 -0.26797,1.69139 0.0196,0.0162 0.66834,0.23355 1.44178,0.48303 2.83675,0.91498 6.93561,3.29405 9.07869,5.26946 0.63343,0.58389 1.61304,1.75247 2.1769,2.59684 l 1.02518,1.53524 -0.14901,4.11974 -0.14901,4.11975 1.17614,0.84538 c 1.35943,0.97715 3.93682,4.11941 4.94224,6.02541 0.65276,1.23747 0.69159,1.50483 0.69159,4.76279 0,2.6767 -0.10432,3.75082 -0.4646,4.78382 l -0.46459,1.33209 2.45321,2.75884 c 1.34927,1.51736 2.8815,3.37824 3.40495,4.13529 0.90692,1.31163 0.95047,1.46941 0.92499,3.35069 -0.0365,2.69619 -1.17589,5.25308 -2.9742,6.67455 l -1.22853,0.9711 1.092,0.62222 c 0.60061,0.34223 1.91694,1.09604 2.92518,1.67514 2.00067,1.14914 3.22895,2.41017 4.15645,4.2673 1.2691,2.54115 0.13469,6.82738 -2.5314,9.56456 l -1.24108,1.27416 1.32034,1.09211 c 1.76731,1.46184 2.07736,1.84356 3.0182,3.71593 l 0.80451,1.60108 -0.13772,3.89611 c -0.10933,3.09269 -0.25629,4.25257 -0.71274,5.62483 l -0.575,1.72874 1.32746,1.27275 c 3.2916,3.15596 3.97072,8.05071 1.92814,13.89703 l -0.6203,1.77544 1.85138,1.94361 c 1.01827,1.06898 2.25409,2.69148 2.74628,3.60555 l 0.89489,1.66194 0,3.96309 c 0,4.78863 -0.29732,5.79912 -2.33601,7.93914 l -1.35202,1.41921 0.37383,1.24217 c 0.48907,1.62506 0.49052,6.6425 0.003,9.19236 -0.43126,2.25401 -2.15096,6.11341 -2.90351,6.51616 -0.50859,0.2722 -0.50189,0.31592 0.3809,2.48121 1.21681,2.98458 1.50394,5.09348 1.13513,8.33692 -0.16074,1.41361 -0.52508,3.09651 -0.80963,3.7398 -0.80224,1.81356 -2.32701,3.65065 -3.96116,4.77247 l -1.48979,1.02274 -4.23615,0.0462 c -2.46955,0.0269 -4.60937,-0.0697 -5.13106,-0.23167 z m 9.49166,-0.97245 c 1.2187,-0.63338 2.83986,-2.13451 3.6862,-3.41327 1.30259,-1.96815 1.72234,-3.98472 1.59823,-7.67821 -0.0947,-2.81911 -0.18144,-3.27744 -0.98389,-5.20093 -0.48399,-1.16017 -0.9433,-2.1094 -1.0207,-2.1094 -0.0774,0 -0.88284,0.54471 -1.78989,1.21047 -0.90704,0.66575 -2.54718,1.68194 -3.64474,2.25821 -1.70343,0.89437 -1.9383,1.09527 -1.60438,1.37239 0.21515,0.17856 0.64414,1.11006 0.9533,2.06999 l 0.56212,1.74533 -0.69681,0.91358 c -1.04364,1.36828 -1.85378,1.68009 -4.3651,1.68009 l -2.186,0 -0.0248,0.70313 c -0.0573,1.62732 0.10035,2.80277 0.62221,4.63831 l 0.55314,1.94553 1.91763,0.16165 c 2.64456,0.22292 5.69453,0.082 6.42346,-0.29687 z m -9.80403,-1.71847 c -0.27639,-0.95521 -0.53941,-2.77643 -0.58902,-4.07853 l -0.0896,-2.35268 -1.42338,-1.72561 c -0.78284,-0.94909 -1.64126,-2.3066 -1.90758,-3.01668 -0.26632,-0.71008 -0.46176,-1.31559 -0.4343,-1.34557 0.0274,-0.0299 0.67738,0.11253 1.44429,0.3167 2.28178,0.60743 4.32548,0.92577 4.85808,0.75674 0.66418,-0.21081 0.62983,-0.90115 -0.12466,-2.50494 -0.34323,-0.72958 -0.76804,-2.11525 -0.94404,-3.07926 -0.21252,-1.16397 -0.4538,-1.79293 -0.7183,-1.87236 -0.21907,-0.0658 -0.59809,-0.22628 -0.84228,-0.35664 -0.24418,-0.13036 -0.82735,-0.23702 -1.29592,-0.23702 -2.91122,0 -8.49355,-2.98038 -11.64694,-6.21825 l -1.11404,-1.14389 0.73052,-0.13861 c 0.40178,-0.0762 1.53592,-0.20672 2.5203,-0.28995 0.98438,-0.0832 2.23029,-0.21693 2.76867,-0.29711 l 0.97889,-0.14578 -2.42682,-2.3392 c -2.57259,-2.4797 -3.21085,-3.65866 -2.85581,-5.2751 0.15467,-0.70425 0.11406,-0.73443 -1.88262,-1.39939 -1.23717,-0.41201 -2.7279,-1.16639 -3.78596,-1.91587 -2.87396,-2.03576 -6.53575,-5.41931 -7.6289,-7.04921 -1.05549,-1.57377 -2.14914,-4.3204 -1.8424,-4.62714 0.0951,-0.0951 1.95587,0.58995 4.13503,1.52237 4.47695,1.91562 6.0256,2.3135 6.0107,1.54426 -0.006,-0.26406 -0.58195,-1.22799 -1.28186,-2.14206 -0.69991,-0.91407 -1.39974,-2.07824 -1.55517,-2.58707 -0.24891,-0.81477 -0.20276,-1.08411 0.38696,-2.25823 0.36828,-0.73321 0.66959,-1.36723 0.66959,-1.40894 0,-0.0417 -1.13693,-0.38763 -2.5265,-0.76873 -1.38958,-0.3811 -2.88497,-0.91091 -3.32311,-1.17735 -0.90562,-0.55074 -4.01137,-4.6195 -4.24908,-5.56658 -0.0863,-0.34393 -0.0495,-0.73273 0.0817,-0.86399 0.14775,-0.14775 1.62325,0.20719 3.87384,0.93188 1.99935,0.64379 3.78901,1.17054 3.97704,1.17054 0.63322,0 0.63374,-0.89649 0.002,-3.69168 -0.3457,-1.52991 -0.57774,-2.86385 -0.51566,-2.9643 0.0621,-0.10047 -0.65309,-0.67803 -1.5893,-1.28349 -2.43138,-1.5724 -6.10549,-4.69153 -6.84808,-5.81366 -0.34834,-0.52637 -0.7044,-1.31235 -0.79125,-1.74663 l -0.15792,-0.7896 2.44389,-0.56473 2.44388,-0.56473 -0.15473,-0.81479 c -0.0851,-0.44813 -0.30218,-1.10864 -0.48237,-1.46778 -0.18021,-0.35915 -0.51047,-1.6167 -0.7339,-2.79458 -0.22344,-1.17787 -0.4335,-2.16304 -0.46681,-2.18928 -0.0333,-0.0262 -1.55631,-0.30685 -3.38444,-0.62361 -1.82813,-0.31675 -4.81962,-1.00977 -6.64776,-1.54003 -1.82813,-0.53026 -4.12928,-1.14522 -5.11367,-1.36658 l -1.78978,-0.40248 -0.89296,0.72047 c -0.49112,0.39625 -0.99358,1.07132 -1.11656,1.50014 -0.21302,0.74273 -0.11569,0.88689 2.05314,3.04158 3.0128,2.99313 5.37021,5.98857 5.71202,7.258 0.45939,1.70602 -0.0183,1.91322 -2.04423,0.88663 -1.17007,-0.59292 -1.63986,-0.94899 -3.58887,-2.7202 -0.40714,-0.36999 -1.01615,-0.74197 -1.35335,-0.8266 -0.52572,-0.13194 -0.67806,-0.01 -1.06889,0.8569 -0.52737,1.16948 -1.02286,1.66204 -1.91907,1.90773 -1.6791,0.46029 -2.04547,0.70904 -2.04547,1.38887 0,0.39403 0.20931,0.80523 0.50333,0.98885 0.27682,0.17289 0.69429,0.68955 0.9277,1.14816 0.23341,0.4586 1.8902,3.19251 3.68175,6.07534 5.30692,8.53951 6.67541,11.37693 7.02899,14.57394 0.10108,0.91407 0.21932,1.96447 0.26273,2.33425 0.17189,1.46398 2.90097,5.77962 8.95267,14.15731 5.51449,7.634 6.09012,8.52926 8.058,12.53244 0.96888,1.97095 2.29811,4.38716 2.95385,5.36935 4.34473,6.50754 18.11971,21.08989 19.92232,21.08989 0.22537,0 0.17352,-0.47456 -0.18856,-1.72585 z m -117.39689,-0.0305 c 0.16521,-0.33318 0.81294,-1.08105 1.4394,-1.66195 1.00569,-0.93254 1.1882,-1.27682 1.55924,-2.94124 0.23113,-1.03678 0.42023,-2.03815 0.42023,-2.22526 0,-0.1871 -0.49959,-0.56119 -1.11021,-0.83129 -0.61062,-0.27011 -1.36091,-0.84317 -1.66731,-1.27349 l -0.55711,-0.78238 0.50308,-1.32401 c 0.27669,-0.72819 0.70028,-1.54191 0.94131,-1.80824 0.24103,-0.26634 0.391,-0.52227 0.33327,-0.56873 -0.45005,-0.36222 -4.82057,-2.85197 -6.34101,-3.61227 -2.17322,-1.08672 -1.95985,-1.20816 -3.121,1.77629 -0.78577,2.01964 -0.79262,2.07821 -0.70405,6.01999 0.0999,4.44592 0.097,4.43716 2.22521,6.71238 2.78043,2.97251 5.33044,4.02968 6.07895,2.5202 z m 5.41112,-0.18285 c 3.69317,-0.92279 6.44619,-2.876 12.03851,-8.54112 5.34569,-5.41526 9.51878,-10.64972 13.83226,-17.35034 4.10729,-6.3803 6.86084,-10.25482 11.69106,-16.45042 l 2.13035,-2.73254 0.3748,-2.63681 c 0.61816,-4.34875 0.51964,-5.04667 -0.81805,-5.79529 -0.34479,-0.19294 0.016,-0.85497 2.27035,-4.16501 1.47416,-2.16457 4.23093,-6.00851 6.12615,-8.5421 3.5278,-4.71605 4.58437,-6.65952 4.95153,-9.10782 0.27093,-1.80666 0.0351,-2.25683 -1.18221,-2.25683 -0.6657,0 -1.34525,0.22164 -1.95975,0.63921 -1.09428,0.74359 -1.97332,0.82086 -2.31862,0.20384 -0.20527,-0.3668 -0.30785,-0.38209 -0.65124,-0.0971 -0.36615,0.30387 -0.39326,0.21166 -0.26666,-0.90697 0.0775,-0.68489 0.19369,-1.59902 0.25819,-2.03143 0.1237,-0.82938 0.99168,-1.78204 2.30753,-2.53266 0.70949,-0.40472 0.819,-0.63576 1.07002,-2.25751 0.30834,-1.99203 0.12538,-2.72792 -1.02095,-4.10646 l -0.61028,-0.7339 -1.393,0.78351 c -1.98504,1.11652 -5.43502,2.19842 -9.57486,3.00265 -1.96877,0.38247 -3.67421,0.77928 -3.78989,0.8818 -0.11567,0.10252 -0.47383,1.22203 -0.7959,2.4878 -0.63982,2.5146 -0.63489,2.50371 -1.86894,4.12457 -0.46871,0.61562 -0.81893,1.1484 -0.77829,1.18397 0.0406,0.0356 1.42729,-0.13192 3.08145,-0.37222 l 3.00756,-0.43691 -0.16424,0.53135 c -0.41217,1.33345 -1.43547,2.96757 -2.19864,3.51098 -0.45998,0.32754 -2.30585,1.3522 -4.10192,2.27705 -1.79608,0.92483 -3.20282,1.74429 -3.12609,1.82102 0.22242,0.22242 -0.39026,3.71732 -0.92325,5.26647 -0.26774,0.77821 -0.4868,1.69704 -0.4868,2.04184 0,0.55493 0.0806,0.60724 0.70312,0.45567 0.38672,-0.0942 2.30821,-0.88328 4.26999,-1.75358 1.96177,-0.8703 3.65371,-1.61899 3.75988,-1.66377 0.41235,-0.17392 -0.86572,3.65444 -1.55395,4.65477 -0.40017,0.58162 -1.93047,2.21608 -3.40068,3.63214 l -2.67311,2.57466 -2.27849,0.44147 c -1.25317,0.2428 -2.46223,0.49451 -2.6868,0.55936 -0.34904,0.10078 -0.39082,0.48119 -0.28778,2.62106 0.0967,2.00753 0.0362,2.66621 -0.30526,3.32659 -0.23419,0.45287 -0.35679,0.93509 -0.27243,1.07159 0.0858,0.13892 1.55366,0.24817 3.33434,0.24817 1.74952,0 3.18094,0.0742 3.18094,0.16493 0,0.0907 -0.40213,1.00101 -0.89362,2.02288 -0.65044,1.3523 -1.30428,2.2294 -2.40252,3.22287 -1.45549,1.31664 -5.29438,3.79391 -5.8792,3.79391 -0.15672,0 -0.28493,0.15315 -0.28493,0.34033 0,0.18716 -0.29807,0.49984 -0.66239,0.6948 -0.3643,0.19498 -0.87291,0.7672 -1.13024,1.27161 -0.50052,0.9811 -1.13068,3.95491 -0.91277,4.30749 0.0722,0.11689 1.1995,0.28857 2.50502,0.38149 3.22467,0.22953 3.89033,0.43073 3.98022,1.20304 0.18673,1.60449 -2.72941,3.47752 -9.57266,6.14849 -2.76619,1.07967 -2.87537,1.15213 -3.60957,2.39588 -0.41639,0.70539 -1.23742,2.38681 -1.82448,3.73645 -0.72318,1.66257 -1.48618,2.92378 -2.36597,3.91089 -0.71422,0.80133 -1.22656,1.52899 -1.13854,1.61702 0.0881,0.088 1.31009,0.054 2.71569,-0.0756 1.40559,-0.12963 2.55337,-0.17816 2.5506,-0.10784 -0.01,0.24286 -3.96151,2.80054 -4.98101,3.22368 -0.56251,0.23346 -1.70663,0.61905 -2.54249,0.85687 l -1.51977,0.43238 -0.41085,1.89839 c -0.50201,2.31962 -0.82065,2.93519 -2.08489,4.02769 -1.93522,1.67233 -1.10064,1.82725 3.56442,0.66164 z m 117.76009,-6.97546 0.88782,-0.86062 -0.34107,-1.13329 c -0.18759,-0.62331 -0.52322,-1.41129 -0.74585,-1.75107 l -0.40478,-0.61777 -1.17181,0.5023 c -1.38276,0.59272 -3.20189,0.63831 -5.34609,0.13398 -0.8426,-0.19818 -1.5702,-0.32213 -1.61688,-0.27544 -0.18464,0.18463 0.75603,1.62515 2.14783,3.28912 l 1.46413,1.75046 2.11945,-0.0885 c 2.00704,-0.0838 2.16653,-0.13417 3.00725,-0.94915 z m -116.57846,-1.16926 c 1.02177,-0.34301 2.30769,-0.88953 2.85759,-1.2145 l 0.99983,-0.59086 -1.40627,-0.0743 c -0.94081,-0.0497 -1.51214,-0.21409 -1.72618,-0.49676 -0.17596,-0.23237 -1.38406,-0.74051 -2.68467,-1.12918 -2.65612,-0.79376 -2.64648,-0.7969 -3.25932,1.06 -0.32248,0.97717 -0.3087,1.08465 0.20495,1.59831 0.47181,0.47181 2.28587,1.36131 2.94569,1.44437 0.11583,0.0145 1.0466,-0.25413 2.06838,-0.59712 z m 114.69608,-3.71524 c 0,-0.13637 0.86901,-0.64946 1.93114,-1.14018 1.06213,-0.49074 2.98935,-1.61848 4.28269,-2.5061 1.29335,-0.88762 2.66328,-1.75063 3.04429,-1.9178 1.42374,-0.62469 3.00362,-4.06094 3.53364,-7.6857 0.34613,-2.36723 0.22098,-6.98104 -0.21831,-8.04792 l -0.29129,-0.70744 -3.05314,1.5305 c -2.01459,1.00988 -3.10921,1.70713 -3.21796,2.04978 -0.0907,0.28561 -0.31551,0.51929 -0.49972,0.51929 -0.20693,0 -0.54219,0.82649 -0.8774,2.16303 -0.29837,1.18966 -0.77943,2.79628 -1.06901,3.57024 l -0.52651,1.40722 -3.04818,1.50594 c -1.6765,0.82826 -2.98375,1.57035 -2.90501,1.6491 0.0787,0.0787 0.35706,1.12196 0.61848,2.31826 0.26143,1.1963 0.69612,2.61572 0.96599,3.15428 0.26987,0.53855 0.56673,1.29559 0.65968,1.68231 0.15782,0.65668 0.67062,1.00475 0.67062,0.45519 z m -112.65215,-1.31379 c 0.64583,-0.71834 1.43313,-1.89459 1.74955,-2.61391 0.31642,-0.71931 1.03706,-2.24848 1.60143,-3.39816 l 1.02614,-2.09031 -3.83865,-0.10603 c -3.66714,-0.1013 -3.93476,-0.1453 -5.9897,-0.98475 -1.82184,-0.74421 -2.45123,-1.17385 -4.11228,-2.80719 -2.17359,-2.13731 -2.30205,-2.44525 -2.30205,-5.51828 0,-1.07862 -0.10874,-1.88566 -0.25407,-1.88566 -0.13973,0 -1.15691,-0.79559 -2.2604,-1.76796 l -2.00633,-1.76796 -0.67592,0.55347 c -0.37175,0.3044 -1.19381,1.58898 -1.82679,2.85461 -1.10944,2.21831 -1.15078,2.38398 -1.14836,4.60229 0.003,2.6938 0.27268,4.03961 1.18186,5.89639 0.91039,1.85927 1.93501,2.76482 4.14364,3.66211 2.37903,0.96653 7.79559,4.03045 8.71448,4.92943 0.63454,0.62078 3.37004,1.6987 4.39943,1.7336 0.23307,0.008 0.95217,-0.57337 1.59802,-1.29169 z m 110.59694,-7.9079 c 3.61019,-1.56583 4.44933,-2.12645 4.85453,-3.24325 0.45771,-1.26158 1.29192,-4.5028 1.18613,-4.60859 -0.0453,-0.0453 -0.58662,0.0262 -1.20294,0.15896 -0.61631,0.13272 -1.86845,0.32264 -2.78251,0.42205 -0.91407,0.0994 -1.98174,0.3446 -2.37258,0.54487 -0.39085,0.20027 -0.81507,0.2996 -0.94269,0.22071 -0.44407,-0.27445 -7.48739,0.32367 -7.691,0.65312 -0.11692,0.18918 -1.30079,0.41621 -2.96775,0.56914 -1.52528,0.13993 -2.81528,0.289 -2.86665,0.33128 -0.1401,0.11525 1.17647,1.25335 2.93317,2.53556 2.61628,1.90961 6.30844,3.39002 8.55797,3.4314 0.53684,0.01 1.89777,-0.40954 3.29432,-1.01525 z m -102.2342,-2.41337 c 4.85005,-1.90943 7.15776,-3.07085 8.16358,-4.10861 0.46689,-0.4817 0.78311,-0.9416 0.70272,-1.02199 -0.24,-0.24 -4.41044,-0.59382 -4.54902,-0.38594 -0.34427,0.51639 -4.55305,1.03572 -8.37882,1.03387 -5.51283,-0.003 -7.73388,-0.30254 -11.2836,-1.52349 -3.64611,-1.25411 -4.11611,-1.29141 -4.11611,-0.32658 0,1.46961 0.5067,2.42216 2.1586,4.05789 2.75645,2.72945 5.33083,3.61774 10.58805,3.65341 l 3.15854,0.0214 3.55606,-1.39999 z m 98.53653,-4.98473 c 1.82814,-0.12095 3.89917,-0.34177 4.6023,-0.4907 0.70313,-0.14893 2.1152,-0.39959 3.13793,-0.55702 1.02274,-0.15743 2.00073,-0.42565 2.17332,-0.59605 0.17257,-0.1704 0.51513,-0.38608 0.76122,-0.47926 0.2461,-0.0932 0.44745,-0.28727 0.44745,-0.43131 0,-0.14403 1.51531,-1.0212 3.36736,-1.94926 3.71959,-1.86389 5.3178,-3.03946 6.23021,-4.58267 0.78356,-1.32528 1.22544,-4.21467 1.09306,-7.14738 -0.0946,-2.0954 -0.19846,-2.48937 -1.11478,-4.22754 -0.68348,-1.29656 -1.58672,-2.47532 -2.7913,-3.64278 l -1.78084,-1.72596 -1.03167,0.97203 c -0.56743,0.53462 -1.67736,1.50759 -2.46653,2.16217 -0.78916,0.65458 -1.58256,1.54676 -1.7631,1.98262 -0.31151,0.75208 -0.28227,0.84058 0.57364,1.73628 1.2678,1.32669 1.55896,2.0113 1.55896,3.66552 0,1.5517 -1.02455,4.12474 -1.75385,4.40459 -0.20726,0.0795 -0.37684,0.30926 -0.37684,0.5105 0,0.87069 -9.5901,2.42491 -18.02566,2.92133 l -3.06821,0.18056 -0.0756,1.15856 c -0.0969,1.48388 0.69479,2.69789 3.07992,4.72296 0.94922,0.80593 1.72587,1.56471 1.72587,1.68618 0,0.12147 0.48899,0.15913 1.08664,0.0837 0.59766,-0.0755 2.58241,-0.23611 4.41054,-0.35706 z m -97.6617,-0.5391 1.58526,-0.27607 -0.12175,-1.08013 c -0.14702,-1.30432 0.52527,-4.1188 1.20738,-5.05455 l 0.4944,-0.67825 -5.55038,-0.10307 c -5.01454,-0.0931 -5.82984,-0.17215 -8.44536,-0.81867 -2.41184,-0.59617 -3.20128,-0.92265 -4.73014,-1.95624 -4.93055,-3.33327 -5.4039,-3.96131 -5.07084,-6.72792 0.16619,-1.38042 0.33939,-1.84659 0.85045,-2.28898 0.59498,-0.51502 1.49036,-1.76501 1.49036,-2.08061 0,-0.0753 -0.16891,-0.13684 -0.37537,-0.13684 -0.20644,0 -0.52284,-0.27507 -0.70312,-0.61126 -0.62346,-1.16267 -3.86759,-3.47967 -4.87205,-3.47967 -0.80012,0 -2.87269,3.1965 -3.34549,5.15972 -0.0907,0.3769 -0.0552,2.50547 0.0792,4.73014 0.26565,4.4003 1.00218,7.66201 1.67209,7.40494 0.19778,-0.0759 1.26645,0.68722 2.47618,1.76816 1.17052,1.04593 2.38711,1.97199 2.70352,2.05793 0.41376,0.11237 0.57528,0.34774 0.57528,0.83825 0,0.65114 0.16767,0.73745 3.7027,1.90642 2.44064,0.80707 4.42327,1.29405 5.8168,1.42873 3.20061,0.30936 8.77893,0.30828 10.56091,-0.002 z m 92.42019,-7.91297 c 4.60539,-0.32022 6.84485,-0.60479 11.29573,-1.43532 2.9146,-0.54386 3.6266,-0.76798 4.27285,-1.34495 1.50997,-1.3481 2.22635,-4.03111 1.55077,-5.80801 -0.14691,-0.38641 -0.69316,-1.07085 -1.21388,-1.52097 l -0.94677,-0.81842 -1.96811,0.72567 c -1.73902,0.64119 -2.5278,0.75769 -6.77622,1.0008 -2.64446,0.15133 -7.7996,0.30473 -11.45587,0.34088 -7.43601,0.0735 -7.30572,0.0964 -12.5924,-2.20998 -1.16016,-0.50614 -2.10938,-0.7969 -2.10938,-0.64613 0,0.84517 1.80916,3.48232 3.47368,5.06345 4.94841,4.70052 8.63202,6.86545 11.73947,6.89955 0.5625,0.006 2.69106,-0.10479 4.73013,-0.24657 z m -86.93227,-0.98657 c 3.53394,-1.83727 6.01015,-3.93174 7.05236,-5.96513 0.33997,-0.6633 0.61813,-1.28555 0.61813,-1.38279 0,-0.0972 -2.73261,-0.0723 -6.07247,0.0554 -10.16752,0.3888 -11.03867,0.33936 -16.14855,-0.91648 -2.83639,-0.69708 -5.20156,-1.4499 -6.51992,-2.07524 l -2.06889,-0.98131 -0.38352,0.55836 c -0.21094,0.30711 -0.69993,0.88332 -1.08665,1.28047 -0.60399,0.62028 -0.70185,0.92814 -0.69407,2.18346 0.005,0.80374 0.15023,1.71534 0.32277,2.02574 0.44982,0.80929 5.13815,4.07123 6.67683,4.64546 1.26264,0.47121 4.46709,1.18366 6.28687,1.39776 0.49219,0.0579 3.02345,0.0902 5.62503,0.0718 l 4.73014,-0.0335 1.66194,-0.86403 z m -0.69372,-8.11919 1.94028,-0.16401 0.5605,-1.30294 c 0.47913,-1.11376 0.53815,-1.59301 0.40644,-3.30081 -0.0847,-1.09883 -0.20725,-2.08395 -0.27227,-2.18915 -0.065,-0.1052 -1.2475,-0.0374 -2.62774,0.15079 -1.38024,0.18813 -3.71764,0.3603 -5.19421,0.3826 -2.40678,0.0363 -2.92806,-0.0431 -5.03593,-0.76739 -3.56483,-1.22494 -6.92892,-2.99996 -8.28169,-4.3697 -1.40574,-1.42337 -1.68028,-1.90524 -2.03928,-3.57916 -0.33705,-1.57162 -0.0676,-2.07294 1.9518,-3.63086 0.7634,-0.58896 1.38799,-1.1467 1.38799,-1.23944 0,-0.25834 -4.23062,-2.70193 -6.45245,-3.7269 l -1.978,-0.9125 -1.25082,0.63385 c -1.58794,0.80467 -2.63514,1.85265 -3.39673,3.39929 -0.52146,1.05897 -0.60105,1.59613 -0.60105,4.05693 0,2.77145 0.022,2.8797 0.95996,4.73014 0.52797,1.04159 0.95945,2.03423 0.95882,2.20589 -6.3e-4,0.17167 0.65663,0.62331 1.46059,1.00364 0.80397,0.38034 2.1509,1.36169 2.99319,2.1808 0.84229,0.8191 1.68025,1.48928 1.86213,1.48928 0.18188,0 0.3307,0.21104 0.3307,0.46897 0,0.339 0.62002,0.76034 2.23723,1.52036 1.95235,0.9175 3.86537,1.4719 10.1634,2.94538 0.79839,0.18679 7.76012,0.19727 9.91714,0.0149 z m 96.5783,-1.08376 c 1.39988,-0.12454 2.83675,-0.4526 4.0262,-0.91927 1.58338,-0.62122 1.93993,-0.87992 2.47794,-1.79797 0.34563,-0.58978 1.4678,-1.74895 2.49371,-2.57593 3.78894,-3.05424 4.47474,-4.17151 5.07329,-8.265 0.63291,-4.32847 -0.35214,-7.24155 -3.27668,-9.69011 l -1.21699,-1.01892 -2.68104,1.92094 c -1.47458,1.05652 -3.17005,2.16049 -3.76771,2.45327 -1.40373,0.68765 -1.38935,1.22716 0.0553,2.07377 1.1636,0.68191 2.0554,1.68285 2.78425,3.12497 0.37251,0.73706 0.37214,0.91022 -0.005,2.04546 -0.63569,1.91708 -1.43085,2.78156 -3.47821,3.78147 -2.6638,1.30097 -5.31601,1.69626 -12.46078,1.85721 -4.84999,0.10926 -6.4646,0.0557 -8.37373,-0.27784 -1.30085,-0.22725 -2.45887,-0.41319 -2.5734,-0.41319 -0.30116,0 -1.07013,1.7075 -1.06901,2.37374 9.2e-4,0.63608 0.53692,1.58894 1.89156,3.36361 0.506,0.6629 0.92,1.41893 0.92,1.68007 0,0.31682 0.23394,0.5169 0.70313,0.60136 0.97205,0.17496 15.80569,-0.08 18.4765,-0.31764 z m -96.89968,-6.55603 c 1.75362,-0.21395 4.45403,-0.63167 6.00091,-0.92826 l 2.81252,-0.53926 2.76142,-2.71523 c 1.51878,-1.49338 2.99262,-3.08509 3.27521,-3.53713 0.46668,-0.74653 1.07058,-2.37414 0.88089,-2.37414 -0.0429,0 -0.94186,0.39363 -1.99759,0.87475 -4.99418,2.27593 -5.03555,2.28574 -8.86899,2.10548 -3.50582,-0.16486 -6.64039,-0.56303 -10.36919,-1.31717 -2.73252,-0.55266 -8.68312,-2.05475 -10.02962,-2.53175 l -1.0807,-0.38284 -1.29916,1.02693 c -1.54514,1.22137 -1.63542,1.41131 -1.40405,2.95418 0.13702,0.91371 0.41017,1.41873 1.17914,2.18004 0.55044,0.54497 1.0008,1.08376 1.0008,1.19733 0,0.30875 5.20106,2.82513 7.54265,3.64928 2.44079,0.85908 4.67759,0.93781 9.59576,0.33779 z m 93.95593,-1.65868 c 2.62853,-0.37665 4.99825,-1.15557 6.22985,-2.04774 1.18352,-0.85735 2.20657,-2.77972 1.9735,-3.70835 -0.2473,-0.98532 -1.30155,-2.28768 -2.50858,-3.09897 l -1.19507,-0.80323 -5.31805,1.62581 c -2.92492,0.8942 -6.12345,1.74151 -7.10782,1.88291 -2.59375,0.37257 -11.8039,0.86144 -12.90681,0.68507 -0.51683,-0.0826 -2.3043,-0.60989 -3.97214,-1.17168 -1.66784,-0.56177 -3.06884,-0.98499 -3.11335,-0.9405 -0.12855,0.12855 2.33644,3.5434 3.11712,4.31829 0.67571,0.67068 2.29148,1.27275 5.36943,2.00074 0.70313,0.16631 1.40813,0.46297 1.56666,0.65925 0.59906,0.74172 4.51699,1.10849 10.45045,0.97829 3.09377,-0.0679 6.43043,-0.23883 7.41481,-0.37989 z m -53.44051,-2.29791 c 1.3976,-0.53137 2.81353,-5.66203 3.19907,-11.59191 0.26493,-4.07477 0.13238,-4.80411 -1.01974,-5.61109 -1.42972,-1.00141 -0.60086,-3.03048 1.44873,-3.54657 1.32201,-0.33289 2.12499,-1.34564 2.12658,-2.68215 4.1e-4,-0.4415 0.1803,-1.74814 0.3995,-2.90364 0.36092,-1.90265 0.36092,-2.14247 0,-2.54129 -0.86809,-0.95922 -0.29472,-2.7739 1.24833,-3.95084 0.90568,-0.6908 0.90992,-0.70332 0.90146,-2.6626 -0.006,-1.56232 -0.66655,-5.7187 -1.30418,-8.2157 -0.0514,-0.20155 0.21048,-0.51832 0.58211,-0.70393 0.38936,-0.19447 0.84726,-0.76627 1.08058,-1.34941 0.36884,-0.92183 0.36918,-1.26891 0.004,-3.89797 -0.22067,-1.58732 -0.49775,-2.94569 -0.61573,-3.01861 -0.27378,-0.16919 -1.27206,-3.75059 -1.27206,-4.56356 0,-1.19502 0.62572,-2.67807 1.47997,-3.50771 l 0.86483,-0.83992 -0.32743,-3.34797 -0.32743,-3.34797 0.97791,-1.81051 0.97789,-1.81052 -0.68132,-0.54736 c -0.54988,-0.44174 -0.73487,-0.89267 -0.95883,-2.33714 -0.15262,-0.98438 -0.2127,-2.56745 -0.13349,-3.51794 l 0.14399,-1.72815 -1.03516,-0.5281 c -1.40112,-0.7148 -3.88138,-1.20382 -7.1131,-1.40243 -3.4666,-0.21306 -6.23656,0.17663 -8.31861,1.1703 -2.18404,1.04235 -3.01485,2.34594 -3.46131,5.43104 -0.25926,1.79158 -0.40893,2.23723 -0.75134,2.23723 -0.23517,0 -0.48754,0.06 -0.56083,0.13324 -0.0732,0.0733 0.24637,1.13757 0.71038,2.36507 0.96683,2.55781 1.25473,4.3463 0.93548,5.81139 -0.18477,0.84787 -0.11569,1.25865 0.40396,2.40254 0.58738,1.29297 0.61789,1.57374 0.48481,4.46199 -0.1092,2.37037 -0.23361,3.14918 -0.53866,3.37224 -0.35554,0.25997 -0.34455,0.42718 0.10611,1.61322 0.6039,1.58934 0.65832,4.53103 0.11187,6.04783 -0.20264,0.5625 -0.37019,1.03587 -0.3723,1.05191 -0.002,0.016 0.52841,0.23247 1.17896,0.48091 l 1.18281,0.45172 -0.173,1.94809 c -0.0952,1.07144 -0.33313,2.64567 -0.52883,3.49826 -0.27442,1.19555 -0.30094,2.1303 -0.11592,4.08598 0.20478,2.16448 0.34721,2.68627 0.97271,3.56348 1.57451,2.20809 1.6708,2.56788 1.31944,4.92957 -0.19318,1.29843 -0.24833,2.87726 -0.14065,4.02632 l 0.17714,1.89031 1.32171,0.0766 1.3217,0.0766 0,2.17916 c 0,1.82503 -0.11847,2.45759 -0.72908,3.89253 l -0.72908,1.71338 1.31249,5.31207 c 2.04074,8.25956 1.94803,7.99671 2.82085,7.99671 0.40878,0 1.04465,-0.11459 1.41303,-0.25464 z m -33.18574,-4.67758 c 0.0131,-0.46271 0.2667,-1.6276 0.56353,-2.58864 0.29684,-0.96103 0.61312,-2.372 0.70286,-3.13547 l 0.16315,-1.38815 -1.37916,0.20545 c -3.29593,0.491 -6.97307,0.0851 -13.36647,-1.47537 -4.3091,-1.05177 -9.13162,-3.45085 -11.71002,-5.82545 -1.4625,-1.3469 -1.48744,-1.3932 -1.48744,-2.76022 0,-1.40226 0.40281,-2.11648 1.57557,-2.79365 0.22421,-0.12946 0.48481,-0.59329 0.57911,-1.03072 l 0.17144,-0.79533 -3.20964,-1.60977 -3.20964,-1.60976 -1.34123,0.72107 c -1.82459,0.98093 -3.26012,1.98104 -4.02589,2.80475 -0.59483,0.63983 -0.63922,0.86809 -0.63922,3.28712 0,2.32099 0.0751,2.75025 0.70059,4.00581 0.38534,0.77345 1.25612,2.15413 1.93511,3.0682 1.08953,1.46676 1.43135,1.7389 2.91071,2.31717 0.92192,0.36038 3.23548,1.56692 5.14125,2.68121 2.63149,1.53861 3.40114,2.10297 3.19942,2.34602 -0.30096,0.36264 -0.40108,0.31446 2.22097,1.06877 5.47509,1.57504 12.65531,2.88733 17.38646,3.17764 3.34751,0.20541 3.09214,0.26033 3.11854,-0.67068 z m 72.81936,0.44247 c 5.2878,-0.24889 6.83443,-0.52453 12.46264,-2.22118 5.08372,-1.53251 5.30361,-1.62563 5.30544,-2.24701 0.002,-0.53987 0.26909,-0.78023 1.59992,-1.43758 0.87891,-0.43413 2.51848,-1.4697 3.64348,-2.30128 1.12501,-0.83157 2.46676,-1.7698 2.98167,-2.08495 1.16017,-0.71006 1.40198,-1.38085 1.7721,-4.91569 0.4483,-4.28153 0.27331,-5.991 -0.79654,-7.7815 -0.98432,-1.64738 -3.51969,-3.87068 -3.93752,-3.45286 -0.13739,0.13741 -0.60075,0.25235 -1.02965,0.25545 -1.55631,0.0112 -6.02134,2.65716 -6.02134,3.56821 0,0.11739 0.5594,0.61534 1.24312,1.10654 2.41255,1.73324 2.97913,4.57355 1.49223,7.48058 -1.06661,2.08532 -3.95242,4.40787 -6.58915,5.30307 -3.91111,1.32785 -11.242,2.54166 -15.57813,2.57933 l -3.19604,0.0278 0.0708,0.89489 c 0.0389,0.4922 0.2521,1.6227 0.47362,2.51223 0.22154,0.88954 0.35254,1.95972 0.29112,2.37818 l -0.11167,0.76084 1.29998,-0.1343 c 0.71499,-0.0739 2.79572,-0.2047 4.62386,-0.29074 z m 4.85798,-7.8769 c 6.80722,-1.23714 9.42953,-2.32255 11.89353,-4.92288 0.90763,-0.95785 1.35468,-1.70147 1.66535,-2.77015 0.71133,-2.44689 0.12425,-4.01055 -2.07351,-5.52264 l -1.13697,-0.78226 -3.6401,1.04029 c -4.61572,1.31909 -6.63259,1.69938 -12.33323,2.32548 -5.94781,0.65323 -9.21809,1.18527 -9.92065,1.61399 -0.30935,0.18877 -1.54045,0.55144 -2.73576,0.80592 -1.19533,0.25448 -2.26939,0.54591 -2.38684,0.64762 -0.795,0.68854 3.44279,4.72316 7.88402,7.50602 l 1.5341,0.96126 3.83525,-0.12605 c 2.49351,-0.082 5.08752,-0.35364 7.41481,-0.7766 z m -73.09782,-2.20739 c 4.11729,-2.15861 5.06815,-2.81156 5.60429,-3.84836 0.37661,-0.72828 0.3701,-0.75364 -0.19202,-0.74831 -0.32003,0.003 -1.61738,0.16193 -2.88301,0.3531 -1.26563,0.19116 -2.36436,0.248 -2.44162,0.1263 -0.0772,-0.12169 -2.20581,-0.33621 -4.73014,-0.47669 -3.28158,-0.18264 -5.28194,-0.42891 -7.01865,-0.86408 -3.98321,-0.99808 -11.53138,-3.24129 -13.0402,-3.87536 -2.48609,-1.04476 -3.14136,-1.06431 -4.30584,-0.12851 -0.86854,0.69798 -1.02871,0.98306 -1.10727,1.97086 -0.0892,1.12149 -0.0486,1.19493 1.40776,2.54321 1.8521,1.71472 7.24819,4.44786 10.26994,5.20176 6.25643,1.56092 7.79971,1.79066 11.40547,1.69787 l 3.4793,-0.0896 3.55199,-1.86225 z m 20.23734,-5.68884 c 0.815,-0.54226 0.85627,-0.63971 0.71895,-1.69763 -0.0801,-0.61729 -0.14568,-1.39393 -0.14568,-1.72586 0,-0.33194 -0.11106,-0.60352 -0.24679,-0.60352 -0.50329,0 -2.02361,1.57908 -2.17235,2.25631 -0.14417,0.65637 0.44931,2.34598 0.82402,2.34598 0.0865,0 0.5463,-0.25887 1.02185,-0.57528 z m -19.07808,-0.89489 c 0.49962,-0.66798 0.9983,-1.3713 1.10818,-1.56294 0.22845,-0.39842 1.14572,-3.8354 1.15233,-4.31778 0.003,-0.22602 -0.53839,-0.32178 -1.84932,-0.32706 -4.06163,-0.0163 -8.28248,-0.46483 -9.30178,-0.98838 -0.5442,-0.27952 -2.6578,-0.90927 -4.69687,-1.39944 -8.26658,-1.98716 -12.90337,-3.74391 -14.60606,-5.53381 -1.2018,-1.26336 -2.53975,-5.11075 -1.77728,-5.11075 0.49266,0 9.2242,-4.36124 9.2242,-4.60731 0,-0.59651 -3.97896,-2.44379 -7.48646,-3.47566 l -1.98928,-0.58522 -2.82889,1.64417 c -6.33668,3.68295 -8.66138,6.06426 -8.66138,8.87224 0,2.45791 2.84528,6.71454 5.24098,7.84064 0.61555,0.28935 2.57029,1.2348 4.34388,2.10101 3.11783,1.52275 3.21964,1.59801 3.07185,2.2709 -0.1449,0.65969 -0.0944,0.70398 0.96889,0.84972 0.61696,0.0845 1.80185,0.44515 2.63307,0.8013 1.75937,0.75383 12.30232,3.80248 14.55115,4.20767 2.33168,0.42013 2.79771,0.45558 6.5313,0.49688 l 3.46311,0.0383 0.90838,-1.2145 z m 40.75998,0.22032 c -0.88902,-1.71917 -5.35725,-6.67632 -6.01784,-6.67632 -0.11603,0 -0.29442,0.7191 -0.39643,1.59802 -0.10201,0.87891 -0.1996,1.64823 -0.21686,1.70961 -0.0172,0.0614 0.36711,0.21485 0.85417,0.34105 0.81775,0.21191 1.70034,0.8324 3.3332,2.34339 0.64389,0.59584 2.61365,1.69936 2.76745,1.55042 0.0455,-0.0441 -0.10014,-0.43387 -0.32369,-0.86617 z m 17.89692,-1.93646 c 1.13264,-0.20039 4.29673,-0.60643 7.0313,-0.9023 5.71715,-0.61857 8.63966,-1.16693 13.05035,-2.44871 2.88396,-0.83809 3.2135,-0.99809 4.08074,-1.98126 1.02342,-1.16025 4.63981,-3.24284 5.63112,-3.24284 0.73032,0 4.07786,-3.36857 4.8483,-4.87877 0.28274,-0.55421 0.64183,-1.91116 0.798,-3.01545 0.2796,-1.97707 0.27264,-2.02856 -0.45409,-3.36482 -1.04396,-1.91953 -1.74425,-2.53115 -5.1125,-4.46515 l -2.97608,-1.70883 -2.97249,1.39773 c -1.63487,0.76875 -3.40396,1.55021 -3.9313,1.73659 -0.83086,0.29363 -0.95882,0.44537 -0.95882,1.13709 0,0.73789 0.13535,0.86174 1.79032,1.63823 0.98468,0.462 2.08033,1.18464 2.43479,1.60589 0.50267,0.5974 0.72102,0.70235 0.99248,0.47705 0.27916,-0.23167 0.38137,-0.11113 0.51649,0.60913 0.22568,1.20299 -0.0844,1.73018 -2.24662,3.8203 -1.51369,1.46318 -2.06573,1.82714 -3.23178,2.13073 -0.77343,0.20137 -1.63637,0.57888 -1.91762,0.8389 -1.00922,0.93307 -7.47856,2.72038 -12.40064,3.42597 -1.47657,0.21168 -4.20918,0.52178 -6.07247,0.68912 l -3.3878,0.30425 0.004,0.66473 c 0.005,0.85085 0.71332,3.87093 0.99181,4.22786 0.11677,0.14965 0.2879,0.58851 0.38028,0.97523 0.19515,0.81691 0.29631,0.82761 3.11246,0.32933 z m -51.87055,-6.13787 c 4.66536,-0.96207 6.90213,-1.62068 8.89639,-2.61952 2.1398,-1.07174 2.10153,-0.99279 1.85586,-3.82853 -0.11884,-1.37179 -0.26229,-2.5404 -0.3188,-2.59689 -0.0565,-0.0565 -2.78288,0.0978 -6.05863,0.34287 -3.27576,0.24508 -6.7087,0.38293 -7.62877,0.30634 -3.63094,-0.30228 -11.31933,-2.40474 -19.70858,-5.3895 l -3.85349,-1.37099 -4.58867,2.20463 -4.58866,2.20464 0.16062,0.88301 c 0.35957,1.97672 1.61924,3.55573 3.66771,4.59751 1.5779,0.80247 5.56023,2.0477 11.10788,3.47333 2.92888,0.75265 5.60846,1.55404 5.95462,1.78085 0.46128,0.30224 1.63395,0.46723 4.39072,0.61772 6.05795,0.33071 6.21501,0.32183 10.7118,-0.60547 z m 52.4959,-1.40447 c 2.60157,-0.2725 5.69754,-0.68176 6.87993,-0.90947 3.29464,-0.6345 8.24725,-2.12017 9.0725,-2.72154 0.4066,-0.29631 1.38459,-0.73459 2.17331,-0.97397 1.12854,-0.34252 1.82889,-0.80892 3.28772,-2.18947 1.01954,-0.96483 1.85371,-1.88833 1.85371,-2.05222 0,-0.58931 -2.466,-2.55884 -4.28632,-3.42339 l -1.85732,-0.88211 -5.30181,1.32656 c -5.93354,1.48463 -7.82524,1.81246 -15.82978,2.74329 -3.06904,0.35689 -5.78987,0.71367 -6.04629,0.79285 -0.28269,0.0873 -0.59759,-0.0357 -0.79991,-0.31241 -0.31248,-0.42733 -0.5673,-0.43631 -4.00824,-0.14123 -3.4728,0.29781 -4.67778,0.48617 -6.9345,1.08398 l -0.95881,0.25399 0,2.03074 c 0,2.0065 0.008,2.03262 0.70313,2.18909 1.84444,0.41539 2.98476,0.71597 5.90468,1.55641 3.47245,0.99949 8.79655,2.07833 10.39512,2.10641 0.56251,0.01 3.1513,-0.20499 5.75288,-0.47751 z m -54.71621,-7.98366 c 0,-0.16672 0.25373,-0.57321 0.56384,-0.9033 0.47819,-0.50901 0.57973,-0.96354 0.66845,-2.99221 0.0623,-1.42439 -0.0156,-2.75632 -0.19256,-3.29254 -0.28574,-0.86579 -0.37309,-0.9169 -2.26648,-1.32625 -6.37883,-1.37907 -8.13376,-1.80254 -10.74923,-2.59381 -5.52551,-1.67167 -13.20602,-5.14106 -14.60644,-6.59792 l -0.88626,-0.92199 0.4803,-0.89187 c 0.26416,-0.49052 1.09445,-1.57052 1.84508,-2.39999 0.75062,-0.82947 1.36477,-1.58219 1.36477,-1.67271 0,-0.0905 -0.43147,-0.3413 -0.95881,-0.55726 -0.52736,-0.21597 -2.20659,-1.02445 -3.73164,-1.79663 -1.52505,-0.77218 -3.2241,-1.56318 -3.77567,-1.75779 l -1.00285,-0.35382 -2.48859,1.86579 c -1.36872,1.02617 -2.80498,2.32234 -3.19169,2.88036 -0.62755,0.90555 -0.70148,1.23293 -0.68787,3.04631 0.0311,4.14454 0.48386,5.1069 3.56494,7.57739 1.1249,0.90196 2.08029,1.34898 4.78351,2.23816 3.76636,1.23888 6.21148,2.45917 6.5879,3.28781 0.27434,0.60395 2.27164,1.37211 10.61672,4.0832 7.76705,2.5233 14.06258,3.90173 14.06258,3.07907 z m 8.43754,-0.29284 4.47446,-0.29893 0.28395,-1.43765 c 0.15617,-0.79071 0.34138,-2.03535 0.41158,-2.76587 l 0.12762,-1.32821 -1.62945,-0.76988 c -1.53246,-0.72405 -1.8842,-0.78133 -5.90876,-0.96219 -2.35362,-0.10578 -4.30638,-0.17514 -4.33946,-0.15413 -0.0331,0.0209 0.0768,0.69097 0.24411,1.4888 0.36034,1.71789 -0.0545,5.34884 -0.69148,6.05271 -0.21305,0.23544 -0.38737,0.48386 -0.38737,0.55207 0,0.0682 0.66158,0.0786 1.47017,0.0231 0.8086,-0.0555 3.48369,-0.23543 5.94463,-0.39984 z m 25.53142,-0.54132 c 0.79374,-0.20363 3.27356,-0.54276 5.51072,-0.75364 2.68246,-0.25284 4.14483,-0.4968 4.29452,-0.71641 0.2678,-0.39292 0.15038,-5.04619 -0.13905,-5.51061 -0.14908,-0.2392 -1.54934,-0.3196 -5.56649,-0.3196 l -5.36731,0 -0.37636,0.90078 c -0.20701,0.49544 -0.61409,1.13851 -0.90464,1.42905 -0.52493,0.52493 -0.5254,0.54336 -0.0751,2.93446 0.5048,2.68013 0.40738,2.60454 2.62366,2.03597 z m 16.1983,-1.03619 c 7.80983,-0.91727 9.90783,-1.27599 15.92685,-2.72328 2.95313,-0.71009 5.51316,-1.33341 5.68894,-1.38517 0.17579,-0.0517 0.31961,-0.42748 0.31961,-0.83492 0,-0.67073 0.14151,-0.79241 1.4958,-1.28621 2.0601,-0.75115 7.06988,-3.2232 8.52782,-4.20801 0.8684,-0.58658 1.42112,-1.23954 1.98906,-2.34975 0.90066,-1.76061 1.43669,-4.54453 1.06385,-5.52517 -0.30367,-0.79873 -2.74098,-3.86669 -4.95166,-6.23291 l -1.67212,-1.78978 -1.24484,0.59919 c -1.43788,0.69211 -5.46255,3.17275 -5.46317,3.36727 -2e-4,0.0721 0.63075,0.62416 1.40218,1.22666 2.96696,2.31722 3.40278,4.46985 1.43312,7.07864 -1.25,1.65562 -1.75756,1.90302 -6.28744,3.06465 -6.77339,1.73697 -12.95064,2.83237 -20.76327,3.68192 -2.99523,0.32571 -3.47842,0.55939 -3.11172,1.5049 0.40115,1.03436 0.42555,5.32682 0.0325,5.72139 -0.38032,0.38182 -0.41585,0.72996 -0.0745,0.72996 0.13481,0 2.69484,-0.28773 5.68895,-0.63938 z m -38.19164,-7.67382 c 0.45506,-1.35602 0.24354,-4.01856 -0.43869,-5.52196 -0.62359,-1.37421 -0.25125,-1.28737 -7.57384,-1.76629 -3.26069,-0.21327 -5.78386,-0.57209 -10.09948,-1.43628 -6.26139,-1.25382 -12.97388,-2.8237 -15.59388,-3.64703 l -1.65913,-0.52137 -0.97772,0.95102 c -0.53775,0.52306 -1.22209,1.34457 -1.52075,1.82555 l -0.54304,0.87453 1.0347,0.91526 c 0.68888,0.60934 2.56357,1.56833 5.60888,2.86919 5.42923,2.31919 7.46192,3.03084 11.51203,4.0304 6.68159,1.64898 9.26247,2.06266 14.28385,2.28948 2.6719,0.12069 5.03057,0.20533 5.24151,0.18808 0.21094,-0.0172 0.53744,-0.48999 0.72556,-1.05058 z m 32.83363,0.0134 c 0.47046,-0.19657 2.28793,-0.48416 4.03883,-0.6391 4.23963,-0.37516 8.48828,-1.08499 14.77819,-2.46899 7.58499,-1.66897 9.02108,-2.16599 10.09373,-3.49337 1.96439,-2.43087 1.90237,-3.38053 -0.36574,-5.59987 -0.83618,-0.81819 -1.6336,-1.48762 -1.77205,-1.48762 -0.13845,0 -3.67354,1.14734 -7.85574,2.54965 -11.73462,3.93466 -13.59352,4.41235 -17.57566,4.51654 -1.82813,0.0478 -4.3594,0.1996 -5.62503,0.33728 -1.26563,0.13767 -3.66114,0.35803 -5.32336,0.48967 -1.66222,0.13165 -3.07796,0.29511 -3.14609,0.36324 -0.0681,0.0681 0.055,1.40636 0.27362,2.97383 0.21863,1.56747 0.3975,2.90209 0.3975,2.96581 0,0.0637 2.52594,0.0561 5.61321,-0.0169 3.96629,-0.0938 5.86418,-0.23764 6.46859,-0.49017 z m -7.97019,-6.79145 c 2.44958,-0.15946 4.79895,-0.37414 5.22082,-0.47709 0.76339,-0.18628 0.76742,-0.19687 0.84286,-2.21628 0.13815,-3.69741 0.0534,-3.76445 -5.45192,-4.31257 -5.05337,-0.50312 -4.72337,-0.51842 -4.72337,0.21904 0,0.40016 -0.18481,0.68065 -0.51818,0.78645 -1.30383,0.41382 -1.90845,2.44528 -1.39138,4.67486 0.47202,2.03533 0.54761,2.16128 1.11478,1.85773 0.24894,-0.13322 2.45681,-0.37269 4.90639,-0.53214 z m -24.71569,-3.19378 c 0.20535,-2.21193 0.17395,-2.69523 -0.25568,-3.93488 -0.57036,-1.6457 -0.78799,-1.7505 -3.71485,-1.78882 -1.07065,-0.014 -2.52838,-0.13581 -3.23939,-0.27065 -1.23269,-0.23377 -1.36623,-0.20156 -2.87444,0.69363 -1.89479,1.12465 -2.14166,1.63958 -1.91511,3.99457 0.29492,3.06563 -0.0633,2.83819 5.05347,3.20839 2.45057,0.1773 4.8482,0.41429 5.32805,0.52666 0.47987,0.11237 0.98754,0.17921 1.12816,0.14853 0.14064,-0.0307 0.36104,-1.19051 0.48979,-2.57743 z m 39.29113,1.7977 c 1.48877,-0.3771 6.43625,-1.92224 10.99439,-3.43364 5.97246,-1.98037 8.27249,-2.8494 8.23374,-3.11102 -0.0555,-0.37488 4.75441,-3.49115 6.7534,-4.37539 0.95696,-0.42331 1.1319,-0.63593 1.4918,-1.81315 0.65508,-2.14265 0.78882,-6.01271 0.26333,-7.61932 -0.63862,-1.95246 -2.00189,-3.94418 -4.15147,-6.06526 -1.56347,-1.54274 -1.99158,-1.83699 -2.45897,-1.69012 -0.65285,0.20515 -4.83637,4.07204 -5.06663,4.68316 -0.10353,0.27475 0.20419,0.72471 0.9374,1.37071 1.17484,1.03511 1.98927,2.48177 2.37336,4.2158 0.23623,1.06652 0.21877,1.10963 -0.94662,2.33683 -2.07839,2.18863 -3.52902,2.73102 -15.76124,5.8931 -10.40158,2.68885 -11.13004,2.90601 -11.40672,3.40041 -0.17318,0.30947 -0.066,0.58839 0.40837,1.06277 0.60112,0.60113 0.64318,0.80991 0.64318,3.19289 0,2.20711 0.0601,2.5676 0.44745,2.68286 0.97982,0.2916 4.68441,-0.082 7.24523,-0.73063 z m -52.08531,-2.80288 c -0.2102,-2.99034 0.0414,-3.70937 1.62241,-4.63588 1.1355,-0.66544 1.14492,-0.68207 0.66154,-1.16546 -0.30182,-0.30182 -1.56647,-0.7413 -3.28899,-1.14294 -5.19248,-1.21074 -18.12653,-4.44812 -19.84706,-4.96771 -1.88344,-0.56877 -4.1249,-1.96685 -4.25981,-2.65698 -0.15162,-0.7756 0.17029,-1.51886 1.22628,-2.83136 1.59674,-1.9846 1.75874,-2.11168 3.6261,-2.84431 0.96476,-0.37851 1.7541,-0.768 1.7541,-0.86555 0,-0.19478 -5.67171,-2.91489 -7.25473,-3.4793 -0.98412,-0.35089 -1.00076,-0.34584 -2.58705,0.78612 -1.80818,1.29029 -3.47381,3.05311 -4.86463,5.14847 l -0.94925,1.43009 0.10114,3.24559 c 0.0924,2.96579 0.16051,3.34694 0.79012,4.42129 0.46542,0.79417 0.91926,1.23292 1.39855,1.35204 0.39024,0.097 2.09022,0.87483 3.77774,1.72854 1.6875,0.85372 3.64348,1.74763 4.3466,1.98647 1.05943,0.35987 1.30032,0.55758 1.40627,1.1542 0.11307,0.63678 0.31984,0.77536 1.78977,1.19954 4.49652,1.2976 18.61597,4.47383 20.14022,4.53063 0.57549,0.0214 0.579,9.3e-4 0.41068,-2.39349 z m 42.49721,-3.84655 c 0.12095,-0.4819 0.41734,-0.70372 1.21937,-0.9126 0.58277,-0.15178 1.80745,-0.49158 2.72152,-0.75512 0.91407,-0.26354 5.22872,-1.40054 9.58812,-2.52667 10.86225,-2.80597 12.17662,-3.30513 13.91435,-5.28431 0.90694,-1.03294 0.90676,-1.67665 -9.3e-4,-3.47024 -0.53394,-1.05521 -1.91139,-2.52246 -2.368,-2.52246 -0.16752,0 -1.52931,0.27674 -3.02619,0.61497 -2.30776,0.52146 -8.8143,1.66184 -15.29474,2.68069 -7.21803,1.13479 -9.91803,1.66151 -12.09461,2.35942 l -2.50649,0.80368 -0.89242,1.77212 -0.89242,1.77211 0.28648,2.60346 c 0.15756,1.43191 0.30638,2.61855 0.33071,2.637 0.0243,0.0185 1.88515,0.20491 4.13516,0.41434 2.25002,0.20945 4.23256,0.39643 4.40567,0.41553 0.1731,0.0191 0.38663,-0.25177 0.47451,-0.60192 z m -30.53679,-2.68724 c 0.2393,-1.14526 -0.29056,-3.68306 -1.25451,-6.00856 l -0.74189,-1.78978 -2.40938,-1.05525 c -3.07349,-1.34613 -5.95409,-2.06169 -10.19379,-2.53224 -1.85597,-0.20598 -4.48804,-0.61206 -5.84905,-0.90238 -7.80204,-1.6643 -8.78421,-1.81044 -9.61285,-1.43033 -0.43335,0.19877 -1.49082,0.67136 -2.34993,1.05018 -1.52211,0.67118 -2.48713,1.65113 -3.65091,3.70741 -0.33209,0.58679 -0.30016,0.6729 0.49616,1.33769 0.46811,0.3908 1.54829,0.93683 2.40042,1.21342 2.55108,0.82803 11.93003,3.23972 17.5295,4.50751 2.88283,0.65271 5.64421,1.39349 6.13641,1.64621 1.54677,0.79416 4.21245,1.22688 7.27716,1.18129 l 2.03566,-0.0303 0.187,-0.8949 z m 25.52877,-8.13853 c 0.91407,-0.29858 3.08366,-0.76873 4.82131,-1.04478 1.73765,-0.27606 3.22123,-0.56378 3.29684,-0.6394 0.22683,-0.22683 -0.94892,-1.76558 -1.87211,-2.45008 -1.12931,-0.83735 -1.64375,-1.94971 -1.64375,-3.55428 0,-0.71704 -0.0863,-1.30164 -0.19175,-1.29912 -0.10547,0.003 -1.28482,0.17305 -2.62076,0.37895 -1.33594,0.20589 -2.92086,0.37641 -3.52204,0.37893 -1.01475,0.005 -1.10431,0.061 -1.25045,0.79164 -0.0994,0.49725 -0.37304,0.86903 -0.74304,1.0097 -0.7712,0.29321 -1.00498,1.81495 -0.6606,4.30009 0.28865,2.08291 0.5389,2.51991 1.52862,2.66942 0.83108,0.12555 0.79738,0.13193 2.85773,-0.54107 z m -25.84326,-2.57786 0.32252,-1.98605 -0.94867,-1.89457 c -0.52222,-1.04291 -1.45442,-2.38303 -2.07375,-2.9812 -1.09922,-1.0617 -1.16462,-1.0865 -2.84644,-1.07979 l -1.72137,0.006 -0.7293,1.63315 c -0.40111,0.89824 -1.2928,2.29962 -1.98154,3.11418 -0.68874,0.81456 -1.25225,1.60871 -1.25225,1.76478 0,0.15608 0.77664,0.43557 1.72586,0.62112 1.97897,0.38681 4.51282,1.25358 6.73014,2.30221 2.16024,1.02162 2.3849,0.9001 2.7748,-1.50072 z m 38.45357,0.20741 c 2.72795,-0.30076 11.29897,-1.80731 14.61296,-2.56855 2.10959,-0.48459 2.41879,-0.62607 2.55508,-1.16907 0.17999,-0.71718 4.16834,-4.62804 5.27017,-5.16779 l 0.74712,-0.36599 0,-4.07421 0,-4.07421 -0.87587,-1.18483 c -2.24219,-3.03308 -6.28394,-5.83064 -10.35422,-7.16685 -2.5456,-0.83568 -2.45006,-0.9022 -2.80054,1.94978 -0.16815,1.36822 -0.47402,2.74453 -0.67972,3.05847 -0.36102,0.551 -0.33632,0.58081 0.71218,0.85955 1.7145,0.45577 3.44745,1.51302 4.41456,2.69326 0.7851,0.9581 0.89038,1.25863 0.89038,2.54146 0,1.40438 -0.0422,1.49463 -1.21449,2.60054 -2.06221,1.94535 -3.47003,2.36515 -14.25434,4.25058 l -6.13639,1.07282 -0.0848,0.74121 c -0.17622,1.54031 0.20535,2.46558 1.5138,3.67088 0.69747,0.64248 1.51066,1.56057 1.80709,2.0402 0.4261,0.68944 0.65233,0.83742 1.08042,0.70671 0.29781,-0.0909 1.55628,-0.27721 2.79661,-0.41396 z m -50.45142,-1.8687 c 0,-0.19831 0.46219,-0.94527 1.02709,-1.65992 1.41683,-1.79243 2.55248,-3.62406 2.55248,-4.11677 0,-0.3318 -1.60722,-0.77726 -8.24579,-2.28546 -4.53518,-1.03034 -8.79649,-2.03616 -9.4696,-2.23517 -1.37531,-0.40663 -2.52543,-1.51077 -2.77122,-2.66045 -0.13463,-0.62967 -0.0234,-0.86722 0.70658,-1.50808 0.4765,-0.41838 1.18122,-0.92636 1.56604,-1.12886 0.81145,-0.42698 1.59818,-1.29665 1.58644,-1.7537 -0.005,-0.17417 -0.17706,-0.54003 -0.38352,-0.813 -0.21802,-0.28824 -0.3754,-1.05224 -0.3754,-1.82239 0,-0.86683 -0.13282,-1.43632 -0.38352,-1.64438 -0.21094,-0.17507 -0.38353,-0.5841 -0.38353,-0.90897 0,-1.17061 -0.89515,-1.04214 -4.19363,0.60184 -5.29163,2.63738 -8.29825,4.91486 -9.46372,7.16864 -0.22898,0.44278 -0.39859,1.37294 -0.38998,2.13862 0.0414,3.6807 0.86078,5.13235 3.43649,6.08821 0.84375,0.31312 3.02985,1.32714 4.85798,2.25338 3.14043,1.59114 3.58493,1.73826 8.05401,2.66572 6.22708,1.2923 8.83517,1.72448 11.69751,1.93833 0.34495,0.0258 0.57529,-0.10139 0.57529,-0.31759 z m 13.41592,-2.18185 c 0.47526,-0.91905 3.43981,-2.44975 5.47561,-2.82723 3.61705,-0.6707 10.15994,-0.0899 12.96568,1.15094 1.8036,0.79764 2.0536,0.79698 2.25512,-0.006 0.089,-0.35478 0.63567,-1.41906 1.21473,-2.36507 1.66639,-2.72241 1.90845,-3.49232 2.10829,-6.70583 0.12972,-2.08627 0.3675,-3.47667 0.81857,-4.78674 0.47241,-1.37204 0.56957,-1.97002 0.37821,-2.32759 -0.14164,-0.26465 -1.09667,-0.9221 -2.12229,-1.46099 -2.50542,-1.31641 -4.34269,-3.17359 -4.79604,-4.84804 -0.19038,-0.70313 -0.36923,-1.31023 -0.39746,-1.34912 -0.0283,-0.0388 -1.01667,0.28556 -2.19655,0.72098 -4.79143,1.76824 -8.66699,2.06224 -11.96967,0.90802 -2.53301,-0.88523 -3.08754,-0.87561 -3.08754,0.0536 0,1.07716 -1.36711,3.02361 -2.73129,3.88875 -0.66224,0.41998 -1.33408,0.7636 -1.49298,0.7636 -0.38788,0 -1.24644,0.96351 -1.75438,1.96884 -0.22739,0.45006 -0.41343,1.37353 -0.41343,2.05218 0,0.67865 -0.12846,2.20887 -0.28547,3.4005 -0.53004,4.0229 -0.47932,4.55324 0.56068,5.86267 0.50757,0.63905 1.42992,1.67967 2.04968,2.31249 0.61975,0.63281 1.46439,1.86967 1.87696,2.74859 0.41258,0.87891 0.8411,1.59802 0.95225,1.59802 0.11116,0 0.37725,-0.33869 0.59132,-0.75264 z m 25.59518,-2.96262 c 3.60106,-0.50459 12.76501,-2.02838 16.21646,-2.69647 4.80709,-0.93052 6.12827,-1.41433 7.61534,-2.78873 1.19496,-1.10444 1.33358,-1.34272 1.33358,-2.29246 0,-0.9273 -0.15589,-1.2158 -1.24594,-2.30584 -0.97849,-0.97849 -1.61243,-1.35914 -2.95333,-1.77329 l -1.7074,-0.52737 -1.32936,1.0587 c -1.95684,1.55842 -4.41134,2.58768 -8.99986,3.774 -2.25,0.58172 -5.38046,1.46905 -6.95657,1.97186 l -2.86564,0.91419 -0.77204,1.64979 c -0.42461,0.90739 -1.00475,1.97664 -1.2892,2.37611 -0.86697,1.21754 -0.98652,1.19166 2.95396,0.63951 z m -31.59629,-2.08693 c 0,-0.073 -0.35699,-0.58353 -0.79333,-1.13444 -0.64781,-0.81792 -0.73587,-1.07091 -0.48006,-1.37913 0.24232,-0.29197 0.24449,-0.46035 0.01,-0.74339 -0.38416,-0.46289 -1.5866,-0.71757 -7.30158,-1.54648 -2.53127,-0.36714 -4.83242,-0.77258 -5.11366,-0.90099 -0.28126,-0.12841 -1.01458,-0.36159 -1.62962,-0.51818 -0.61502,-0.15659 -1.70807,-0.67254 -2.42899,-1.14656 -1.93619,-1.27309 -2.35579,-1.29216 -3.97238,-0.18047 -1.8962,1.30396 -2.04558,1.6036 -1.28148,2.57053 0.34058,0.43099 0.84935,0.86699 1.1306,0.9689 0.28125,0.1019 4.36579,1.07061 9.07675,2.15267 6.86088,1.57588 8.98516,1.96967 10.67478,1.97885 1.16016,0.006 2.10938,-0.0483 2.10938,-0.12131 z m 32.85992,-4.17105 c 1.29697,-0.44622 5.51908,-1.64032 9.03638,-2.55568 l 1.11484,-0.29013 -0.54967,-0.5851 c -0.30233,-0.32181 -0.62221,-1.03208 -0.71086,-1.57839 -0.0886,-0.5463 -0.31422,-1.14631 -0.50124,-1.33334 -0.18703,-0.18703 -0.34006,-0.86397 -0.34006,-1.50433 0,-1.13791 -0.0161,-1.16104 -0.71366,-1.02154 -0.39251,0.0785 -1.74444,0.27415 -3.00428,0.43475 -5.37856,0.68567 -4.76927,0.44704 -5.43676,2.12931 -0.67739,1.7072 -1.17995,6.81741 -0.67045,6.81741 0.15665,0 0.95574,-0.23084 1.77576,-0.51296 z m -33.68933,-3.21467 c 0.17664,-1.53576 0.29169,-3.19499 0.25567,-3.68718 -0.0646,-0.88347 -0.0834,-0.89702 -1.47173,-1.06137 -0.77343,-0.0916 -2.93076,-0.17785 -4.79406,-0.19176 l -3.38779,-0.0253 0,1.1323 c 0,0.64012 -0.15868,1.291 -0.36505,1.49736 -0.20078,0.20078 -0.44786,0.80648 -0.54908,1.34602 -0.10121,0.53952 -0.44947,1.2464 -0.77391,1.57084 -0.32443,0.32442 -0.5395,0.58987 -0.47794,0.58987 0.41782,0 9.11785,1.34125 9.83647,1.51645 0.49219,0.12 1.00994,0.19272 1.15058,0.16162 0.14062,-0.0311 0.4002,-1.31309 0.57684,-2.84886 z m -11.9303,0.13066 c 0.55559,-0.39561 0.7426,-0.73544 0.7426,-1.34937 0,-0.45133 0.1689,-1.06172 0.37532,-1.35643 0.20642,-0.29472 0.44935,-0.99885 0.53984,-1.56472 0.14492,-0.90624 0.0982,-1.04994 -0.39212,-1.20555 -1.11398,-0.35357 -2.29632,-1.67677 -2.69359,-3.01454 -0.45189,-1.52166 -0.52115,-4.69993 -0.10545,-4.83851 0.15445,-0.0515 0.34135,-0.63057 0.41533,-1.28687 0.12754,-1.13157 0.0985,-1.20229 -0.56178,-1.36801 -0.38294,-0.0961 -2.08641,-0.11749 -3.78547,-0.0476 -4.15324,0.17105 -4.31416,0.36979 -3.85514,4.76136 0.11211,1.07256 0.27448,1.57161 0.51136,1.57161 0.22384,0 0.3471,0.30668 0.3471,0.86358 0,0.47498 0.17259,1.00682 0.38353,1.18188 0.24506,0.20338 0.38352,0.7689 0.38352,1.56633 0,0.75956 0.20016,1.62148 0.51138,2.20214 0.28124,0.52476 0.51136,1.13909 0.51136,1.36517 0,0.76387 3.76668,2.75408 5.7134,3.01882 0.11892,0.0161 0.55038,-0.20854 0.95881,-0.49937 z m 60.82815,-2.00077 c 0.77344,-0.52412 1.76823,-1.48764 2.21065,-2.14116 0.69061,-1.02014 0.85016,-1.57444 1.12797,-3.91853 0.26535,-2.23899 0.40553,-2.75175 0.77903,-2.84941 0.25048,-0.0655 0.51322,-0.42381 0.58385,-0.79624 0.0706,-0.37241 0.20139,-1.05105 0.29059,-1.50808 0.11952,-0.6123 0.07,-0.83098 -0.18833,-0.83098 -0.27752,0 -4.96794,1.27077 -7.15106,1.93743 -0.41439,0.12654 -0.50117,0.38136 -0.84412,2.47857 -0.18394,1.12483 -1.33509,2.5438 -2.43243,2.99832 -0.68367,0.2832 -0.76823,0.43799 -0.76823,1.40647 0,0.61761 0.15384,1.21591 0.35573,1.38347 0.19565,0.16238 0.43498,0.82373 0.53184,1.46967 0.10786,0.71922 0.41167,1.40999 0.78383,1.78215 l 0.60772,0.60772 1.35335,-0.53324 c 0.74435,-0.29327 1.98616,-0.96205 2.75961,-1.48616 z m -12.65632,-3.9884 c 6.02839,-0.52876 8.38179,-1.72211 8.74562,-4.43465 l 0.14278,-1.06451 -0.99248,0.002 c -1.45468,0.002 -2.64168,0.39171 -6.22008,2.04166 -1.76547,0.81404 -3.87259,1.68669 -4.6825,1.93925 l -1.47256,0.45917 0.69719,0.72771 c 0.51171,0.53411 0.86946,0.69568 1.34472,0.60732 0.35614,-0.0662 1.45293,-0.19103 2.43731,-0.27737 z m -42.65997,-0.39902 c 0.17151,-0.17151 1.63524,-0.24111 4.03247,-0.19176 3.38702,0.0697 3.7039,0.04 3.1697,-0.29714 -0.32643,-0.20605 -1.46237,-1.24157 -2.52429,-2.30115 -1.09232,-1.08993 -2.89452,-2.51678 -4.15011,-3.28577 l -2.21935,-1.35925 -2.43248,0.84788 c -2.2622,0.78852 -2.43258,0.89622 -2.43374,1.53842 -0.004,2.21647 1.09969,4.54147 2.40689,5.07029 0.76967,0.31136 3.83392,0.29548 4.15091,-0.0215 z m 10.04299,-1.63958 c 1.59206,-0.80676 2.76658,-2.22454 2.97074,-3.58604 0.12745,-0.84983 9.3e-4,-1.40296 -0.65716,-2.87492 -0.80366,-1.79738 -0.85329,-1.84797 -3.58079,-3.65141 -1.52122,-1.00584 -3.49407,-2.11531 -4.38412,-2.4655 -0.89005,-0.35019 -1.98083,-0.80072 -2.42395,-1.00119 -0.44314,-0.20046 -1.27136,-0.36447 -1.84051,-0.36447 -1.09963,0 -4.91618,-1.09348 -5.819,-1.6672 -0.70927,-0.45073 -6.51111,-0.98722 -19.27643,-1.78251 -5.69535,-0.35482 -14.15206,-0.88091 -18.79271,-1.16909 -4.64065,-0.28819 -9.47306,-0.63872 -10.7387,-0.77898 -1.26563,-0.14025 -3.75134,-0.31937 -5.52379,-0.39804 l -3.22265,-0.14304 -1.14275,1.49925 c -0.62851,0.82458 -1.23414,1.654 -1.34583,1.84315 -0.11702,0.19816 0.16182,1.69998 0.65798,3.54383 l 0.86108,3.19994 1.66194,-0.15587 c 3.98294,-0.37352 12.73087,-0.45483 19.94329,-0.18538 13.29349,0.49666 25.36727,1.06678 27.04818,1.27721 0.88797,0.11117 2.80596,0.0878 4.28433,-0.0523 2.90361,-0.27512 5.39206,0.0521 5.65754,0.74395 0.0763,0.19882 0.27427,0.3615 0.43995,0.3615 0.16568,0 1.11652,0.26705 2.11299,0.59344 2.45441,0.80395 5.6723,2.89368 8.14193,5.28746 2.04571,1.98289 2.78041,2.53427 3.3963,2.54886 0.18045,0.005 0.88792,-0.2759 1.57214,-0.62262 z m 29.4369,-0.36688 c 1.18655,-0.40787 3.59557,-1.40104 5.35339,-2.20703 2.56816,-1.17755 3.52253,-1.48784 4.85798,-1.57943 0.91407,-0.0627 2.20645,-0.33749 2.87197,-0.61066 0.66551,-0.27317 2.90524,-0.95457 4.97719,-1.51422 3.54641,-0.95792 3.97747,-1.01769 7.35537,-1.01987 4.69355,-0.003 8.97042,-0.52163 15.86097,-1.92322 8.38756,-1.70609 10.16077,-1.90639 18.9825,-2.14427 8.84961,-0.23863 8.71691,-0.2117 9.89694,-2.00888 0.56698,-0.86352 2.2984,-5.17006 2.12893,-5.29528 -0.0389,-0.0287 -1.68151,-0.32472 -3.65027,-0.65776 -8.72873,-1.47657 -21.05616,-0.39553 -45.583,3.99735 -4.25804,0.76264 -7.79244,1.38662 -7.85423,1.38662 -0.0617,0 -0.0536,0.1532 0.0183,0.34044 0.0928,0.24183 -0.4705,0.50519 -1.94465,0.90919 -2.64876,0.72589 -4.59412,0.96971 -4.59412,0.57576 0,-0.445 -0.72796,-0.35839 -3.93229,0.46781 -4.40491,1.13575 -9.09418,2.7333 -10.34592,3.52464 -2.86471,1.81106 -2.04576,5.23311 1.873,7.82658 0.56,0.3706 1.14246,0.67383 1.29438,0.67383 0.15191,0 1.24701,-0.33372 2.43356,-0.7416 z m -13.69501,-3.94653 c 1.93583,-0.54098 5.59959,-2.00028 5.81948,-2.31794 0.37921,-0.5478 0.0659,-1.76094 -0.57798,-2.2383 -1.28156,-0.95007 -7.18029,-1.76239 -13.31912,-1.8342 -4.03122,-0.0472 -4.26716,0.0185 -4.97339,1.38422 -0.32858,0.63539 -0.29837,0.8483 0.33646,2.37155 0.64907,1.5574 0.7631,1.68461 1.64392,1.83387 0.52056,0.0882 1.72866,0.44471 2.68467,0.79223 1.56107,0.56747 2.01177,0.61831 4.42288,0.49885 1.47657,-0.0731 3.25996,-0.29378 3.96308,-0.49028 z m -30.23453,-1.36967 c 1.38931,-0.49795 1.50923,-0.71732 0.51136,-0.93537 -0.38672,-0.0845 -0.94827,-0.22377 -1.24789,-0.30948 -0.47217,-0.13508 -0.55903,-0.0336 -0.65179,0.76089 -0.0589,0.5042 -0.0438,0.9173 0.0334,0.918 0.0772,6.1e-4 0.68695,-0.19462 1.35492,-0.43404 z m 16.59846,-4.41105 0.42649,-0.74965 -1.44923,-0.17069 c -1.55152,-0.18275 -2.59981,-0.68204 -2.59981,-1.23828 0,-0.38096 -1.51395,-1.01552 -3.42172,-1.43419 -1.6441,-0.3608 -1.74771,-0.18696 -0.22746,0.3816 0.67111,0.25097 2.4283,1.24358 3.90487,2.20578 1.47657,0.96221 2.7422,1.75073 2.81252,1.75227 0.0704,0.002 0.31976,-0.33453 0.55434,-0.74684 z m 0.72407,-2.17125 c 0,-0.18542 0.17259,-0.48036 0.38352,-0.65543 0.40258,-0.3341 0.48558,-1.21563 0.23325,-2.47729 -0.10531,-0.52656 -0.37503,-0.83625 -0.90133,-1.0349 -0.74966,-0.28297 -0.75241,-0.28042 -1.5193,1.41092 -0.42255,0.93192 -0.95589,1.90171 -1.18519,2.15509 -0.55413,0.6123 -0.30589,0.80157 1.27888,0.97511 1.48271,0.16237 1.71017,0.11269 1.71017,-0.3735 z m 21.1708,-0.0529 c 0.58239,-0.15599 0.58071,-0.16219 -0.16737,-0.61713 -0.75225,-0.45747 -0.85199,-0.70747 -1.19974,-3.00723 -0.12591,-0.83265 -0.26019,-1.06847 -0.54596,-0.95881 -0.20845,0.08 -0.47339,0.14543 -0.58876,0.14543 -0.3148,0 -0.77114,1.48806 -0.77114,2.51458 0,1.65584 1.33729,2.44162 3.27297,1.92316 z m 17.75696,-1.04409 c 0.8086,-0.21606 1.47019,-0.4448 1.47019,-0.50832 0,-0.0635 -0.8463,-1.11264 -1.88065,-2.33138 -1.03435,-1.21874 -2.18659,-2.74658 -2.56051,-3.39521 -0.66898,-1.16042 -0.70469,-1.18157 -2.22918,-1.31981 -0.96022,-0.087 -1.7396,-0.31269 -2.04978,-0.5934 -0.27526,-0.24911 -1.08287,-0.52764 -1.7947,-0.61896 -1.27314,-0.16333 -1.30379,-0.15111 -1.88174,0.74999 -0.32315,0.50382 -0.9756,1.28619 -1.4499,1.73862 -0.80047,0.76353 -1.04163,0.83905 -3.35988,1.05216 -1.37364,0.12627 -2.56606,0.29811 -2.64981,0.38187 -0.22667,0.22667 0.38929,4.04096 0.71615,4.43483 0.45641,0.54992 1.32081,0.39872 3.42036,-0.59836 l 1.97557,-0.93819 2.56056,0.30041 c 2.34236,0.27482 4.24239,0.86006 6.32553,1.94835 0.67836,0.3544 1.0549,0.32077 3.38779,-0.3026 z m -41.48744,-2.10956 c 0.56407,-1.12189 1.02558,-2.08507 1.02558,-2.1404 0,-0.0554 -1.12181,-0.24683 -2.49291,-0.42552 -1.3711,-0.17869 -2.74882,-0.41964 -3.0616,-0.53543 -0.31278,-0.11579 -1.10789,-0.90486 -1.76689,-1.75347 -1.02203,-1.31609 -1.31857,-1.54294 -2.0169,-1.54294 -0.52355,0 -1.16444,0.27475 -1.77767,0.76208 -0.64007,0.50867 -1.38368,0.81842 -2.23629,0.93152 -1.23501,0.16384 -1.31388,0.22545 -2.37914,1.85868 -0.60599,0.92908 -1.01377,1.78093 -0.90617,1.89301 0.10758,0.11208 1.04738,0.50567 2.08843,0.87466 1.54357,0.54709 2.41176,0.68062 4.70534,0.72363 2.62646,0.0492 5.48007,0.5475 6.48044,1.13148 0.94922,0.55413 1.29942,0.28789 2.33778,-1.7773 z"
       id="path4258"
       inkscape:connector-curvature="0" />
    <path
       style="fill:#ffffff;fill-opacity:1;stroke:#000000;stroke-width:1.356;stroke-miterlimit:4;stroke-dasharray:none;stroke-dashoffset:0;stroke-opacity:1"
       d="m 241.08427,294.20322 c -7.73548,-7.9686 -11.76416,-13.17568 -14.95663,-19.33149 -1.29391,-2.49497 -4.84903,-8.05198 -7.90025,-12.34891 -7.4803,-10.53426 -8.60232,-12.48056 -9.15599,-15.88239 -0.25896,-1.59115 -1.06178,-4.18379 -1.78404,-5.76141 -1.30761,-2.85618 -8.38007,-14.77452 -9.6683,-16.29278 -0.89178,-1.051 -0.85411,-1.47545 0.13093,-1.47545 0.44413,0 1.43281,-0.66938 2.19705,-1.48752 l 1.38955,-1.48751 2.65188,1.99259 c 1.45854,1.09592 3.19728,1.99259 3.86386,1.99259 2.69806,0 0.7491,-4.02231 -4.66081,-9.61908 -2.02601,-2.09599 -2.1564,-2.38083 -1.50048,-3.27787 0.70602,-0.96554 0.83399,-0.95407 7.45508,0.66813 3.70519,0.90779 7.44419,1.77997 8.30887,1.93818 1.41563,0.25901 1.63013,0.54674 2.15454,2.89003 0.32031,1.43131 0.63562,2.8188 0.70069,3.0833 0.0651,0.26451 -0.83184,0.71908 -1.99314,1.01015 -1.16129,0.29108 -2.26032,0.68124 -2.44227,0.86703 -0.85553,0.87352 1.66767,4.2233 5.30477,7.04256 3.57714,2.77279 3.92862,3.21172 4.47813,5.59233 0.32797,1.42086 0.49807,2.68163 0.37799,2.8017 -0.12007,0.12008 -1.79982,-0.22923 -3.73276,-0.77624 -5.33518,-1.50981 -5.9002,-0.38643 -2.1756,4.32554 1.54054,1.94893 2.45497,2.58434 4.76879,3.31371 2.54131,0.80108 2.80568,1.00909 2.35431,1.85248 -0.78067,1.4587 -0.61932,2.42216 0.74085,4.42383 0.68712,1.01119 1.17048,1.91736 1.07414,2.0137 -0.0964,0.0964 -1.91452,-0.51576 -4.04038,-1.36024 -4.55797,-1.81062 -5.35414,-1.88574 -5.35414,-0.50515 0,3.2166 6.86173,10.52676 12.16665,12.96177 1.61198,0.73992 2.82793,1.51187 2.70211,1.71547 -0.42187,0.6826 0.72781,2.9101 2.53368,4.90898 l 1.79016,1.98149 -3.03031,0.34284 c -1.66667,0.18856 -3.03031,0.52989 -3.03031,0.75851 0,0.69226 4.21012,4.34686 6.59786,5.72728 2.05851,1.19009 4.19358,1.92508 7.5826,2.61031 1.03203,0.20867 1.41479,0.70945 1.85127,2.42208 0.30263,1.18746 0.71966,2.70875 0.92674,3.38063 0.31001,1.00588 0.22946,1.16519 -0.45615,0.9021 -0.45796,-0.17573 -1.97184,-0.47063 -3.36418,-0.65534 -3.13375,-0.4157 -3.25479,0.13329 -0.82533,3.74345 1.2521,1.86061 1.8408,3.45363 2.2119,5.9854 0.27814,1.8975 0.45272,3.51145 0.38798,3.58656 -0.0647,0.0751 -3.04883,-2.88289 -6.63131,-6.57334 z"
       id="path4279"
       inkscape:connector-curvature="0" />
    <path
       style="fill:#ffffff;fill-opacity:1;stroke:#000000;stroke-width:0.68488342;stroke-miterlimit:4;stroke-dasharray:none;stroke-dashoffset:0;stroke-opacity:1"
       d="m 192.22543,241.42489 c -0.14604,-0.23631 -0.93094,-3.06267 -1.74422,-6.28079 -1.33124,-5.2677 -1.41018,-6.01406 -0.7917,-7.48499 0.37784,-0.89861 0.68698,-2.85781 0.68698,-4.35377 0,-2.56455 -0.0721,-2.71994 -1.26269,-2.71994 -1.41185,0 -1.5017,-0.35895 -1.29063,-5.15586 0.10282,-2.33652 -0.0955,-3.19533 -1.04629,-4.53056 -1.29594,-1.81999 -1.56874,-5.65956 -0.78894,-11.10414 0.37172,-2.59538 0.3176,-2.88958 -0.58426,-3.17582 -0.824,-0.26152 -0.99125,-0.76555 -0.97826,-2.94802 0.017,-2.86475 0.0221,-7.52114 0.0115,-10.71378 -0.01,-2.98731 -0.92969,-9.38422 -1.58839,-11.04633 -0.58174,-1.4679 -0.53354,-1.75177 1.16521,-6.86324 0.97574,-2.93598 3.1281,-3.80871 9.39319,-3.80871 3.35814,0 5.90538,0.25404 6.9448,0.69262 1.57393,0.66412 1.64181,0.80965 1.64895,3.53554 0.004,1.5636 0.31082,3.41112 0.68162,4.1056 0.57995,1.08619 0.5535,1.47449 -0.18918,2.77792 -0.69555,1.22072 -0.79312,2.15334 -0.502,4.79823 0.3047,2.76814 0.22026,3.44141 -0.53843,4.29314 -1.51061,1.69587 -1.63051,3.43896 -0.51097,7.42874 1.27042,4.52752 1.34198,7.32304 0.21922,8.56368 -0.72988,0.80652 -0.76096,1.35162 -0.25254,4.43021 0.83087,5.03108 0.73832,6.01215 -0.73197,7.75949 -1.09736,1.30414 -1.26045,1.8796 -0.99794,3.52124 0.17258,1.07929 0.16404,3.09117 -0.019,4.47086 -0.28468,2.14606 -0.56012,2.62496 -1.90625,3.31441 -0.86541,0.44324 -1.74046,1.05828 -1.94455,1.36676 -0.64111,0.96903 -0.41991,2.68233 0.43826,3.39455 1.77842,1.47596 -0.37509,15.60779 -2.43899,16.00527 -0.44936,0.0865 -0.93651,-0.036 -1.08255,-0.27231 z"
       id="path4281"
       inkscape:connector-curvature="0" />
    <path
       style="fill:#ffffff;fill-opacity:1;stroke:#000000;stroke-width:0.68488342;stroke-miterlimit:4;stroke-dasharray:none;stroke-dashoffset:0;stroke-opacity:1"
       d="m 202.49832,185.57661 c 0,-1.66642 0.2935,-2.46649 1.22626,-3.34278 1.10829,-1.04118 1.53347,-1.11904 4.41942,-0.80931 4.9398,0.53016 4.96092,0.54311 4.96092,3.04177 l 0,2.1986 -3.40927,0.30715 c -1.87509,0.16892 -4.26158,0.41699 -5.3033,0.55124 l -1.89403,0.2441 0,-2.19077 z"
       id="path4283"
       inkscape:connector-curvature="0" />
    <path
       style="fill:#ffffff;fill-opacity:1;stroke:#000000;stroke-width:0.68488342;stroke-miterlimit:4;stroke-dasharray:none;stroke-dashoffset:0;stroke-opacity:1"
       d="m 215.36625,184.34618 c -0.17926,-1.31951 -0.43579,-2.79686 -0.57006,-3.28299 -0.13426,-0.48614 -0.12951,-0.88389 0.0106,-0.88389 0.77264,0 21.09937,-5.63779 22.62497,-6.27522 2.75859,-1.15261 4.96762,-3.22214 4.96762,-4.6539 0,-1.36408 -1.17275,-3.94567 -2.46002,-5.41523 -0.77539,-0.8852 -0.69415,-1.05396 1.4053,-2.91904 1.22555,-1.08874 2.47561,-1.89774 2.77792,-1.79778 1.16559,0.38542 4.82689,5.48932 5.36119,7.47359 0.50302,1.86805 0.37112,4.64411 -0.34009,7.15827 -0.13915,0.49187 -1.3402,1.44524 -2.66903,2.1186 -1.32882,0.67337 -3.12283,1.81903 -3.9867,2.54593 -2.45929,2.06936 -22.0368,8.33077 -26.04775,8.33077 -0.50984,0 -0.85173,-0.76378 -1.07391,-2.39911 z"
       id="path4285"
       inkscape:connector-curvature="0" />
    <path
       style="fill:#ffffff;fill-opacity:1;stroke:#000000;stroke-width:0.68488342;stroke-miterlimit:4;stroke-dasharray:none;stroke-dashoffset:0;stroke-opacity:1"
       d="m 215.88284,164.5908 c -1.8924,-2.16599 -2.38951,-3.39612 -1.61154,-3.98789 0.33076,-0.2516 2.98787,-0.85606 5.90469,-1.34326 8.54824,-1.4278 11.59325,-2.32409 13.45786,-3.96123 1.39152,-1.22177 1.69443,-1.84846 1.69443,-3.50561 0,-1.60762 -0.32005,-2.31685 -1.57419,-3.48838 -0.8658,-0.80878 -2.11586,-1.60646 -2.77792,-1.77263 -1.3026,-0.32693 -1.34956,-0.50578 -0.87955,-3.34933 0.21949,-1.32792 0.57113,-1.89404 1.17646,-1.89404 1.6637,0 7.1052,3.12975 9.35759,5.38214 l 2.27375,2.27375 0,3.75241 0,3.75242 -3.39569,3.32949 -3.39569,3.32949 -6.07449,1.18084 c -3.34097,0.64946 -7.55184,1.37327 -9.35749,1.60848 l -3.28299,0.42765 -1.51523,-1.7343 z"
       id="path4287"
       inkscape:connector-curvature="0" />
    <path
       style="fill:#ffffff;fill-opacity:1;stroke:#000000;stroke-width:0.68488342;stroke-miterlimit:4;stroke-dasharray:none;stroke-dashoffset:0;stroke-opacity:1"
       d="m 204.63068,168.47257 c -0.33943,-0.33942 -0.61713,-1.60395 -0.61713,-2.81007 0,-3.0497 1.15696,-4.1549 4.73619,-4.52431 l 2.837,-0.2928 0.30873,1.54366 c 0.16981,0.84902 0.97738,2.18427 1.79461,2.96723 l 1.48588,1.42356 -4.19225,0.84111 c -2.30573,0.46261 -4.53957,0.98233 -4.96407,1.15493 -0.42451,0.1726 -1.04954,0.0361 -1.38896,-0.30331 z"
       id="path4289"
       inkscape:connector-curvature="0" />
    <path
       style="fill:#ffffff;fill-opacity:1;stroke:#000000;stroke-width:0.68488342;stroke-miterlimit:4;stroke-dasharray:none;stroke-dashoffset:0;stroke-opacity:1"
       d="m 180.954,159.39428 c -1.06795,-1.43173 -2.24402,-3.00855 -2.61349,-3.50405 -0.51212,-0.68682 -0.58496,-2.01042 -0.30652,-5.56978 0.30112,-3.84917 0.55207,-4.82846 1.42938,-5.57781 2.47011,-2.10985 4.63505,-4.29949 5.13288,-5.19146 0.4698,-0.84174 0.73407,-0.88535 2.22194,-0.36667 2.42398,0.845 7.9008,0.67135 11.13444,-0.35305 l 2.77792,-0.88002 1.02478,1.79476 c 0.56363,0.98712 2.15462,2.53971 3.53553,3.4502 1.54771,1.02046 2.47806,1.98912 2.42551,2.52538 -0.48929,4.9934 -1.78515,10.46166 -2.95039,12.44998 -0.74442,1.27026 -1.43445,2.30957 -1.5334,2.30957 -0.0989,0 -1.48881,-0.34093 -3.08858,-0.75762 -3.45285,-0.89935 -10.43335,-0.99458 -12.84887,-0.17528 -0.94428,0.32028 -2.32044,1.00233 -3.05814,1.51566 l -1.34127,0.93334 -1.94172,-2.60315 z"
       id="path4291"
       inkscape:connector-curvature="0" />
    <path
       style="fill:#ffffff;fill-opacity:1;stroke:#000000;stroke-width:0.68488342;stroke-miterlimit:4;stroke-dasharray:none;stroke-dashoffset:0;stroke-opacity:1"
       d="m 204.80712,140.09237 c -1.97719,-1.86473 -2.2935,-3.4865 -0.9661,-4.95327 1.26755,-1.40062 9.94132,-3.98675 14.97941,-4.4662 2.44905,-0.23306 4.95922,-0.75555 5.57815,-1.16109 1.25228,-0.82052 24.96401,-5.03552 26.96076,-4.79254 1.07765,0.13114 14.54566,-4.16468 10.70825,0.33084 -1.1976,1.40299 -3.40426,6.07734 -3.51709,6.19016 -0.58083,0.58084 -16.25115,2.5568 -22.21207,2.95605 -4.82455,0.32313 -8.0631,0.83609 -11.07442,1.75409 -2.34074,0.71357 -4.67964,1.29741 -5.19757,1.29741 -0.51792,0 -3.42332,1.02278 -6.45644,2.27284 -3.03312,1.25007 -5.84875,2.27285 -6.25696,2.27285 -0.4082,0 -1.55387,-0.76552 -2.54592,-1.70114 z"
       id="path4293"
       inkscape:connector-curvature="0"
       sodipodi:nodetypes="sssssscssssss" />
    <path
       style="fill:#ffffff;fill-opacity:1;stroke:#000000;stroke-width:0.68488342;stroke-miterlimit:4;stroke-dasharray:none;stroke-dashoffset:0;stroke-opacity:1"
       d="m 220.67259,148.08468 c -1.1409,-3.0008 -1.11427,-3.57584 0.20562,-4.44067 0.72059,-0.47215 1.54073,-1.71882 1.88359,-2.8632 0.55106,-1.83925 0.84207,-2.09665 3.14302,-2.77996 3.97074,-1.17918 4.39462,-1.05802 3.17045,0.90624 -0.38345,0.61526 -0.83831,2.23214 -1.01082,3.59307 -0.35393,2.79231 -0.76008,3.41543 -3.54483,5.43847 -2.43016,1.76545 -3.21993,1.79544 -3.84703,0.14605 z"
       id="path4295"
       inkscape:connector-curvature="0" />
    <path
       style="fill:#ffffff;fill-opacity:1;stroke:#000000;stroke-width:0.68488342;stroke-miterlimit:4;stroke-dasharray:none;stroke-dashoffset:0;stroke-opacity:1"
       d="m 209.20923,150.13177 c 0.16702,-1.61833 0.60049,-3.22856 0.96326,-3.5783 0.36277,-0.34973 2.15121,-0.79022 3.97431,-0.97887 l 3.31472,-0.34299 0.63244,1.94275 c 0.34784,1.06851 0.73265,2.17406 0.85513,2.45677 0.12249,0.28271 -1.76737,1.05693 -4.19969,1.72048 -2.43232,0.66356 -4.74223,1.3226 -5.13313,1.46453 -0.58009,0.21061 -0.65491,-0.28277 -0.40704,-2.68437 z"
       id="path4297"
       inkscape:connector-curvature="0" />
    <path
       style="fill:#ffffff;fill-opacity:1;stroke:#000000;stroke-width:0.68488342;stroke-miterlimit:4;stroke-dasharray:none;stroke-dashoffset:0;stroke-opacity:1"
       d="m 218.0235,128.11268 c -0.48938,-0.28496 -2.53104,-0.86033 -4.53701,-1.27859 -3.53574,-0.73722 -3.72077,-0.72601 -6.05354,0.3666 -1.32347,0.61988 -2.48797,1.03169 -2.58777,0.91514 -0.0998,-0.11656 -0.31731,-0.92682 -0.48335,-1.80058 -0.32209,-1.69496 0.36133,-2.17654 3.11149,-2.19252 0.67563,-0.004 1.94563,-0.76559 2.94818,-1.76814 l 1.76124,-1.76125 2.88777,0.85106 c 2.5255,0.7443 3.14814,1.2025 4.96321,3.65241 1.4222,1.91962 1.89043,2.91904 1.48766,3.17529 -0.82636,0.52575 -2.44815,0.45183 -3.49788,-0.15942 z"
       id="path4299"
       inkscape:connector-curvature="0" />
    <path
       style="fill:#ffffff;fill-opacity:1;stroke:#000000;stroke-width:0.68488342;stroke-miterlimit:4;stroke-dasharray:none;stroke-dashoffset:0;stroke-opacity:1"
       d="m 176.23435,127.37351 c -1.25006,-0.35805 -3.43217,-0.66929 -4.84912,-0.69165 -1.41696,-0.0224 -3.27911,-0.28565 -4.13811,-0.5851 -1.41997,-0.495 -1.5116,-0.65469 -1.00887,-1.75806 0.30412,-0.66748 1.02985,-1.34722 1.61272,-1.51053 0.58288,-0.1633 1.78095,-0.6645 2.66238,-1.11377 1.5924,-0.81164 1.61572,-0.80499 3.66326,1.04484 1.31028,1.18376 2.5659,1.86449 3.44816,1.86941 0.76312,0.004 1.71046,0.21214 2.10518,0.46197 0.61096,0.38669 0.59045,0.64841 -0.13791,1.76003 -0.47058,0.71819 -0.90718,1.27611 -0.97022,1.23983 -0.063,-0.0363 -1.1374,-0.35892 -2.38747,-0.71697 z"
       id="path4301"
       inkscape:connector-curvature="0" />
    <path
       style="fill:#ffffff;fill-opacity:1;stroke:#000000;stroke-width:0.68488342;stroke-miterlimit:4;stroke-dasharray:none;stroke-dashoffset:0;stroke-opacity:1"
       d="m 175.14667,139.43314 c -2.84951,-2.4858 -5.05492,-3.76965 -10.27653,-5.98234 -1.8276,-0.77445 -42.43202,-2.48731 -52.14875,-2.19984 l -6.37076,0.18848 -0.69767,-2.74134 c -0.64776,-2.54526 -0.62748,-2.83428 0.28357,-4.04061 0.93335,-1.23587 1.19985,-1.2957 5.46122,-1.22606 4.29034,0.0701 15.54925,0.77452 40.03103,2.50455 6.39703,0.45205 12.19542,1.11236 13.35232,1.52054 1.12471,0.39682 3.52972,1.06584 5.34447,1.48671 3.92102,0.90934 9.03766,3.64972 10.86149,5.81722 1.67041,1.98518 1.74255,4.4457 0.17179,5.8596 -2.07726,1.8698 -2.63428,1.75984 -6.01218,-1.18691 z"
       id="path4303"
       inkscape:connector-curvature="0" />
    <path
       style="fill:#ffffff;fill-opacity:1;stroke:#000000;stroke-width:0.68488342;stroke-miterlimit:4;stroke-dasharray:none;stroke-dashoffset:0;stroke-opacity:1"
       d="m 134.17351,298.68233 c 0.56958,-0.7241 1.18223,-2.09818 1.36145,-3.05352 0.28567,-1.52274 0.61977,-1.83687 2.70869,-2.54684 2.61809,-0.88982 6.22305,-3.19269 6.55131,-4.185 0.14741,-0.44563 -0.49513,-0.63134 -2.18437,-0.63134 -2.2396,0 -2.34316,-0.0567 -1.61341,-0.88389 0.4289,-0.48613 1.61156,-2.54789 2.62814,-4.58169 1.54177,-3.08447 2.15843,-3.82345 3.71789,-4.45537 7.85015,-3.18098 10.7084,-5.07009 10.7084,-7.07753 0,-1.20301 -0.20644,-1.29891 -4.16688,-1.93567 -1.55685,-0.25031 -1.89404,-0.51312 -1.89404,-1.47621 0,-1.72041 1.6033,-3.4785 5.58797,-6.12751 2.62368,-1.74422 3.92222,-3.02058 5.00898,-4.92342 0.8069,-1.41284 1.35953,-2.74283 1.22807,-2.95554 -0.13147,-0.21272 -1.53899,-0.53335 -3.12784,-0.71253 l -2.8888,-0.32576 0.16903,-2.93906 0.16904,-2.93905 2.4077,-0.33115 c 2.09423,-0.28803 2.8132,-0.74028 5.52233,-3.47371 2.10661,-2.1255 3.43968,-3.99802 4.11899,-5.78581 1.29811,-3.41634 0.78426,-3.62833 -3.93107,-1.62178 -1.98133,0.84313 -3.68918,1.53297 -3.79521,1.53297 -0.10603,0 0.17708,-1.53417 0.62912,-3.40926 0.8131,-3.37274 0.85218,-3.4255 3.64813,-4.9245 3.32967,-1.78514 4.79555,-3.03151 5.76086,-4.89822 1.19372,-2.30839 0.96325,-2.58966 -1.81948,-2.22052 -2.31221,0.30673 -3.33204,-0.15178 -2.07105,-0.93111 0.24988,-0.15444 0.71856,-1.38224 1.04151,-2.72845 l 0.58718,-2.44766 4.13552,-0.87881 c 2.27454,-0.48334 5.49923,-1.42688 7.16598,-2.09676 2.85853,-1.14887 3.06833,-1.16798 3.69784,-0.3369 1.00629,1.32849 0.37203,3.91827 -1.3539,5.52817 -1.02205,0.95334 -1.62225,2.10308 -1.84284,3.53013 -0.32704,2.11577 -0.32665,2.11641 1.51765,2.4624 1.14503,0.21481 2.06037,0.1305 2.41315,-0.22228 0.9519,-0.95191 2.38663,-0.67658 2.38663,0.45801 0,1.93566 -1.47505,4.54968 -6.53776,11.58593 -7.12191,9.89817 -7.24866,10.12409 -6.28031,11.1941 0.62764,0.69354 0.71353,1.53166 0.42912,4.18748 -0.33668,3.14381 -0.55573,3.58115 -4.11879,8.22331 -2.06977,2.69661 -6.06257,8.322 -8.8729,12.50087 -6.80828,10.12367 -9.66457,13.70218 -15.77794,19.76741 -5.15248,5.11191 -8.45694,7.26937 -12.33571,8.05391 l -1.72397,0.3487 1.03559,-1.31654 z"
       id="path4305"
       inkscape:connector-curvature="0" />
    <path
       style="fill:#ffffff;fill-opacity:1;stroke:#000000;stroke-width:0.68488342;stroke-miterlimit:4;stroke-dasharray:none;stroke-dashoffset:0;stroke-opacity:1"
       d="m 126.33957,298.08968 c -2.33306,-1.99701 -3.13099,-4.06019 -3.13541,-8.10719 -0.003,-2.46486 0.72445,-5.54022 1.51995,-6.42844 0.36093,-0.403 4.33291,1.38187 6.20249,2.78718 0.8401,0.63148 0.84985,0.81766 0.13265,2.53416 l -0.77407,1.8526 1.74955,1.44213 c 1.64168,1.35321 1.71854,1.54979 1.24647,3.18823 -0.62698,2.17611 -2.65301,4.52403 -3.9038,4.52403 -0.51891,0 -1.88593,-0.80671 -3.03783,-1.7927 z"
       id="path4307"
       inkscape:connector-curvature="0" />
    <path
       style="fill:#ffffff;fill-opacity:1;stroke:#000000;stroke-width:0.68488342;stroke-miterlimit:4;stroke-dasharray:none;stroke-dashoffset:0;stroke-opacity:1"
       d="m 132.79779,284.9303 c -2.08344,-1.26958 -5.20747,-2.9986 -6.9423,-3.84226 -3.82585,-1.86054 -5.16896,-3.77133 -5.54191,-7.88423 -0.22466,-2.47762 -0.0614,-3.31502 1.08925,-5.58564 1.46728,-2.89553 1.78173,-2.9636 4.34672,-0.94093 1.22155,0.96329 1.44069,1.50569 1.46446,3.62476 0.0258,2.30353 0.21295,2.67029 2.47454,4.85017 2.87456,2.77071 6.06991,4.02208 10.27028,4.02208 1.61727,0 2.94049,0.1212 2.94049,0.26933 0,0.14813 -0.59329,1.45502 -1.31841,2.90419 -1.55927,3.11623 -3.09752,4.91094 -4.1992,4.89928 -0.43772,-0.005 -2.50048,-1.04716 -4.58392,-2.31675 z"
       id="path4309"
       inkscape:connector-curvature="0" />
    <path
       style="fill:#ffffff;fill-opacity:1;stroke:#000000;stroke-width:0.68488342;stroke-miterlimit:4;stroke-dasharray:none;stroke-dashoffset:0;stroke-opacity:1"
       d="m 137.59602,270.07437 c -4.04596,-0.62091 -7.33397,-1.97323 -9.19704,-3.78262 -0.95316,-0.9257 -2.50901,-2.21285 -3.45742,-2.86033 -2.14493,-1.46431 -2.23489,-1.69658 -2.75317,-7.10815 -0.45186,-4.71796 -0.0957,-6.91313 1.44431,-8.90253 0.8193,-1.05836 1.06637,-1.12408 2.14144,-0.56963 0.6684,0.34472 1.83064,1.20047 2.58275,1.90166 l 1.36748,1.27489 -0.98867,1.25689 c -0.66879,0.85023 -0.98867,2.03918 -0.98867,3.6748 0,2.21693 0.17715,2.56954 2.13121,4.24215 4.28837,3.67068 9.61112,5.29083 17.46338,5.31554 l 3.17961,0.01 -0.33082,1.76343 c -0.18195,0.96989 -0.36271,2.16313 -0.40169,2.65165 -0.039,0.48852 -0.52544,1.03603 -1.08103,1.21668 -1.36528,0.44394 -7.99714,0.39355 -11.11167,-0.0844 z"
       id="path4311"
       inkscape:connector-curvature="0" />
    <path
       style="fill:#ffffff;fill-opacity:1;stroke:#000000;stroke-width:0.68488342;stroke-miterlimit:4;stroke-dasharray:none;stroke-dashoffset:0;stroke-opacity:1"
       d="m 141.88916,252.84624 c -7.34474,-1.98609 -8.64971,-2.54818 -10.9866,-4.73223 -1.31885,-1.2326 -3.13149,-2.63855 -4.02809,-3.12432 -2.39886,-1.29968 -3.36729,-4.13408 -3.22157,-9.42877 0.0412,-1.49737 0.44843,-2.33946 1.77078,-3.66181 0.94449,-0.94449 2.11589,-1.71726 2.60311,-1.71726 0.48722,0 2.35015,0.81888 4.13983,1.81973 l 3.25398,1.81973 -1.6271,1.67875 c -1.42567,1.47092 -1.58502,1.90311 -1.28712,3.49102 0.44065,2.34889 2.88389,4.76813 6.58536,6.5207 4.71188,2.23097 7.6823,2.81038 12.35092,2.40917 2.26987,-0.19507 4.2309,-0.25081 4.35784,-0.12387 0.12694,0.12694 0.2308,1.08582 0.2308,2.13085 0,3.10195 -0.79541,3.49412 -6.98088,3.44188 -2.96642,-0.025 -6.18898,-0.26066 -7.16126,-0.52357 z"
       id="path4313"
       inkscape:connector-curvature="0" />
    <path
       style="fill:#ffffff;fill-opacity:1;stroke:#000000;stroke-width:0.68488342;stroke-miterlimit:4;stroke-dasharray:none;stroke-dashoffset:0;stroke-opacity:1"
       d="m 151.95456,236.98523 c -6.20644,-0.96757 -12.6938,-2.70595 -13.75958,-3.68706 -0.50395,-0.46391 -3.00407,-1.98354 -5.55584,-3.37694 -3.76341,-2.05504 -4.95381,-3.00215 -6.30357,-5.01526 -1.46315,-2.18224 -1.64604,-2.82136 -1.51523,-5.29521 0.14531,-2.74795 0.20594,-2.85163 2.60496,-4.45493 1.35091,-0.90282 2.60097,-1.63936 2.77792,-1.63675 0.17695,0.003 1.53794,0.70217 3.02443,1.5546 l 2.7027,1.54986 -1.02376,1.09705 c -0.56307,0.60338 -1.182,1.73445 -1.3754,2.51351 -0.30435,1.22597 -0.0531,1.70144 1.86816,3.53553 1.22089,1.16549 3.80558,2.88941 5.74377,3.83094 4.31878,2.09796 14.51658,4.32035 17.99237,3.92105 l 2.34658,-0.26958 -0.68709,2.87417 c -0.3779,1.5808 -0.69518,3.04464 -0.70508,3.25298 -0.0256,0.53869 -3.11152,0.38925 -8.13534,-0.39396 z"
       id="path4315"
       inkscape:connector-curvature="0" />
    <path
       style="fill:#ffffff;fill-opacity:1;stroke:#000000;stroke-width:0.68488342;stroke-miterlimit:4;stroke-dasharray:none;stroke-dashoffset:0;stroke-opacity:1"
       d="m 157.15069,221.56026 c -1.74557,-0.22676 -6.29125,-1.36384 -10.10153,-2.52685 -3.81027,-1.16301 -7.43915,-2.22523 -8.06418,-2.36047 -0.62504,-0.13525 -1.13643,-0.55806 -1.13643,-0.93957 0,-0.38152 -2.04591,-1.72119 -4.54647,-2.97705 -3.38084,-1.69795 -4.92612,-2.80744 -6.02721,-4.32746 -3.27071,-4.51508 -2.44913,-6.80798 4.01946,-11.21774 4.87731,-3.32496 5.55852,-3.39603 10.4864,-1.09397 l 2.88635,1.34836 -4.43615,2.08977 -4.43615,2.08976 0.23228,1.97658 c 0.28871,2.45674 1.59348,4.26345 4.10714,5.68715 1.72927,0.97944 4.01993,1.70733 16.40218,5.21209 1.80564,0.51108 4.95772,1.05093 7.0046,1.19968 2.04689,0.14874 3.82997,0.37879 3.96241,0.51123 0.45936,0.45936 -0.43546,3.30266 -1.44214,4.58245 -1.11768,1.4209 -2.69736,1.55316 -8.91056,0.74604 z"
       id="path4317"
       inkscape:connector-curvature="0" />
    <path
       style="fill:#ffffff;fill-opacity:1;stroke:#000000;stroke-width:0.68488342;stroke-miterlimit:4;stroke-dasharray:none;stroke-dashoffset:0;stroke-opacity:1"
       d="m 163.85998,202.40791 c -8.1897,-2.16503 -15.64787,-4.80858 -17.53328,-6.21466 -0.91279,-0.68073 -3.25061,-1.84689 -5.19515,-2.59148 -4.99355,-1.91208 -5.71205,-2.32027 -7.33212,-4.16542 -1.6568,-1.88699 -2.45088,-5.61876 -1.59522,-7.49672 0.29865,-0.65548 1.70761,-2.11235 3.13101,-3.23749 2.46771,-1.95061 2.65261,-2.01229 3.97773,-1.32704 0.76435,0.39526 2.70008,1.29815 4.30162,2.00643 l 2.9119,1.28778 -1.81358,2.11875 c -0.99746,1.16532 -1.81357,2.38786 -1.81357,2.71677 0,1.99051 10.69842,6.76697 20.70812,9.24542 4.02799,0.99734 7.49059,2.04754 7.69468,2.33377 0.61914,0.86831 0.39893,5.00747 -0.31654,5.94998 -0.83472,1.09961 -0.47984,1.13079 -7.1256,-0.62609 z"
       id="path4319"
       inkscape:connector-curvature="0" />
    <path
       style="fill:#ffffff;fill-opacity:1;stroke:#000000;stroke-width:0.68488342;stroke-miterlimit:4;stroke-dasharray:none;stroke-dashoffset:0;stroke-opacity:1"
       d="m 159.56683,183.22067 c -8.90876,-2.06778 -11.11167,-2.75438 -11.11167,-3.46326 0,-0.24579 -2.37544,-1.53358 -5.27876,-2.86175 -5.92083,-2.70858 -6.338,-3.24272 -6.338,-8.11524 0,-2.4983 0.1593,-2.83615 2.5928,-5.49878 3.68016,-4.02668 3.93427,-4.11124 7.51945,-2.50231 2.70712,1.21489 3.85819,2.22738 2.53223,2.22738 -0.90306,0 -3.92837,3.01293 -4.56248,4.54382 -1.25122,3.02069 0.87927,4.06997 15.46649,7.61735 5.77238,1.40375 10.66842,2.6593 10.88008,2.79012 0.21167,0.13081 -0.0614,0.68412 -0.60688,1.22957 -0.72113,0.72113 -0.99173,1.6808 -0.99173,3.51711 0,2.08271 -0.15494,2.51881 -0.88388,2.48785 -0.48614,-0.0207 -4.63408,-0.90798 -9.21765,-1.97186 z"
       id="path4321"
       inkscape:connector-curvature="0" />
    <path
       style="fill:#ffffff;fill-opacity:1;stroke:#000000;stroke-width:0.68488342;stroke-miterlimit:4;stroke-dasharray:none;stroke-dashoffset:0;stroke-opacity:1"
       d="m 167.14298,164.17797 c -8.48656,-1.38724 -14.3707,-2.92374 -18.43529,-4.81393 -5.72997,-2.66466 -6.19759,-3.06855 -6.59113,-5.69288 -0.56245,-3.75063 1.07837,-5.72747 7.90236,-9.52069 4.79193,-2.66367 4.99617,-2.60153 5.72592,1.7422 0.27854,1.65797 0.14027,1.95336 -1.50006,3.2045 -2.14469,1.63584 -2.22483,3.41946 -0.22056,4.90871 0.70707,0.52537 5.08444,1.84752 9.81829,2.96552 4.6983,1.10961 8.62935,2.10446 8.73567,2.21078 0.33167,0.33167 -3.1344,5.2874 -3.66743,5.24365 -0.2778,-0.0228 -1.07329,-0.13434 -1.76777,-0.24786 z"
       id="path4323"
       inkscape:connector-curvature="0" />
    <path
       style="fill:#ffffff;fill-opacity:1;stroke:#000000;stroke-width:0.68488342;stroke-miterlimit:4;stroke-dasharray:none;stroke-dashoffset:0;stroke-opacity:1"
       d="m 160.4704,148.85037 c -1.47419,-0.78642 -1.99714,-1.45774 -2.44953,-3.14449 -0.31636,-1.17953 -0.89342,-3.06134 -1.28238,-4.1818 -0.38895,-1.12045 -0.70719,-2.96904 -0.70719,-4.10797 0,-2.36691 0.54194,-2.67501 4.72599,-2.68678 2.14699,-0.006 2.40529,0.10342 2.06961,0.87699 -1.28211,2.95467 -0.55215,6.89412 1.65701,8.94258 1.25416,1.16291 1.2678,1.24551 0.51772,3.13384 -0.91248,2.29719 -1.92477,2.55805 -4.53123,1.16763 z"
       id="path4325"
       inkscape:connector-curvature="0" />
    <path
       style="fill:#ffffff;fill-opacity:1;stroke:#000000;stroke-width:0.68488342;stroke-miterlimit:4;stroke-dasharray:none;stroke-dashoffset:0;stroke-opacity:1"
       d="m 170.90499,151.49677 -4.57174,-0.68928 0.78367,-2.47993 0.78367,-2.47993 3.9302,-0.007 c 4.52397,-0.008 4.71046,0.17094 4.06783,3.89825 l -0.42188,2.44693 -4.57175,-0.68928 z"
       id="path4327"
       inkscape:connector-curvature="0" />
    <path
       style="fill:#ffffff;fill-opacity:1;stroke:#000000;stroke-width:0.68488342;stroke-miterlimit:4;stroke-dasharray:none;stroke-dashoffset:0;stroke-opacity:1"
       d="m 176.73943,166.2488 c -1.52786,-0.65491 -3.17567,-1.19773 -3.66181,-1.20627 -1.23077,-0.0216 -1.11825,-0.58152 0.70685,-3.51749 2.30669,-3.71069 4.21157,-3.46702 6.62976,0.84805 1.36763,2.44044 1.32949,5.21843 -0.0703,5.12289 -0.45461,-0.031 -2.07663,-0.59226 -3.60448,-1.24718 z"
       id="path4329"
       inkscape:connector-curvature="0" />
    <path
       style="fill:#ffffff;fill-opacity:1;stroke:#000000;stroke-width:0.68488342;stroke-miterlimit:4;stroke-dasharray:none;stroke-dashoffset:0;stroke-opacity:1"
       d="m 174.84842,185.86796 c -2.28308,-0.15981 -2.68968,-0.34895 -2.94605,-1.37043 -0.48235,-1.92183 -0.0456,-3.39674 1.30152,-4.39482 1.09,-0.80761 1.77593,-0.88362 5.01536,-0.55575 3.55572,0.35987 3.77249,0.45415 4.13062,1.79652 0.20787,0.77919 0.25089,2.19972 0.0956,3.15672 -0.31235,1.9248 -0.12386,1.89087 -7.59704,1.36776 z"
       id="path4331"
       inkscape:connector-curvature="0" />
    <path
       style="fill:#ffffff;fill-opacity:1;stroke:#000000;stroke-width:0.68488342;stroke-miterlimit:4;stroke-dasharray:none;stroke-dashoffset:0;stroke-opacity:1"
       d="m 173.62885,200.12841 0.17242,-3.41961 3.93019,0.26938 c 4.95694,0.33976 6.08149,0.90342 6.0713,3.04314 -0.0128,2.6819 -0.4486,2.93425 -5.60019,3.24261 l -4.74614,0.2841 0.17242,-3.41962 z"
       id="path4333"
       inkscape:connector-curvature="0" />
    <path
       style="fill:#ffffff;fill-opacity:1;stroke:#000000;stroke-width:0.68488342;stroke-miterlimit:4;stroke-dasharray:none;stroke-dashoffset:0;stroke-opacity:1"
       d="m 203.30042,202.31661 c -0.66918,-2.16878 -0.65855,-3.19904 0.0441,-4.27138 0.73868,-1.12738 1.08114,-1.19841 5.7779,-1.19841 l 4.99267,0 0,2.23271 c 0,2.47706 0.12845,2.40301 -5.3033,3.05723 -1.38896,0.16729 -3.1506,0.42729 -3.91476,0.57779 -0.90975,0.17917 -1.46091,0.0418 -1.59659,-0.39794 z"
       id="path4335"
       inkscape:connector-curvature="0" />
    <path
       style="fill:#ffffff;fill-opacity:1;stroke:#000000;stroke-width:0.68488342;stroke-miterlimit:4;stroke-dasharray:none;stroke-dashoffset:0;stroke-opacity:1"
       d="m 216.3418,199.03071 -0.0461,-3.14138 2.82404,-0.3198 c 8.88022,-1.00561 20.82733,-3.45139 24.63914,-5.04407 1.90625,-0.79648 3.68663,-3.41211 3.68936,-5.42021 0.001,-0.88017 -0.64956,-2.10858 -1.77975,-3.35956 l -1.78164,-1.97207 2.6625,-1.53718 2.6625,-1.53718 1.16307,1.09264 c 0.63968,0.60095 2.09116,2.29563 3.2255,3.76594 1.85381,2.40288 2.03397,2.88543 1.78113,4.77053 -0.43416,3.23686 -1.69316,4.48211 -7.43914,7.35788 -2.90978,1.4563 -5.35707,2.95453 -5.43843,3.3294 -0.22317,1.02831 -11.12086,3.40368 -20.81274,4.53655 l -5.3033,0.61989 -0.0461,-3.14138 z"
       id="path4337"
       inkscape:connector-curvature="0" />
    <path
       style="fill:#ffffff;fill-opacity:1;stroke:#000000;stroke-width:0.68488342;stroke-miterlimit:4;stroke-dasharray:none;stroke-dashoffset:0;stroke-opacity:1"
       d="m 222.27382,218.18629 c -0.2547,-0.48613 -0.61457,-1.59016 -0.79971,-2.45339 l -0.33661,-1.56951 5.20878,-0.58612 c 10.54352,-1.18641 19.36373,-4.26117 22.51317,-7.84818 1.79041,-2.03916 2.11965,-4.15778 0.73723,-4.74385 -1.56651,-0.66411 -4.67196,-2.71194 -4.67196,-3.08084 0,-0.19684 1.61168,-1.07398 3.58151,-1.94921 l 3.5815,-1.59132 3.25253,2.05416 c 3.81926,2.41207 4.95713,4.19564 4.47967,7.02168 -0.51939,3.07422 -2.8149,5.77649 -6.42423,7.56257 -1.74222,0.86214 -3.73589,2.10028 -4.43037,2.75142 -2.0195,1.89346 -7.04101,3.13371 -18.43528,4.55329 -7.60956,0.94806 -7.69695,0.94678 -8.25623,-0.1207 z"
       id="path4339"
       inkscape:connector-curvature="0" />
    <path
       style="fill:#ffffff;fill-opacity:1;stroke:#000000;stroke-width:0.68488342;stroke-miterlimit:4;stroke-dasharray:none;stroke-dashoffset:0;stroke-opacity:1"
       d="m 228.07967,235.88468 c -0.17403,-1.05312 -0.31892,-2.17198 -0.32198,-2.48636 -0.003,-0.35381 1.6488,-0.70941 4.33629,-0.93328 5.81609,-0.48448 12.68784,-1.93208 15.16108,-3.19383 2.34366,-1.19565 5.14495,-3.88196 5.80002,-5.56196 0.94192,-2.41564 0.53961,-5.0137 -1.05814,-6.83345 -1.65402,-1.88382 -1.58953,-2.05186 1.36273,-3.55088 2.51206,-1.2755 3.89518,-1.03957 5.65487,0.96461 1.48725,1.69388 1.56755,2.00268 1.56755,6.02803 0,2.33348 -0.20527,4.78259 -0.45615,5.44247 -0.2609,0.68622 -2.2607,2.37243 -4.67196,3.93936 -2.31869,1.50677 -4.39326,3.01955 -4.61016,3.36173 -0.45414,0.71646 -6.88541,2.82446 -10.96986,3.59562 -1.52785,0.28846 -4.7354,0.66358 -7.12789,0.83358 l -4.34997,0.3091 -0.31643,-1.91474 z"
       id="path4341"
       inkscape:connector-curvature="0" />
    <path
       style="fill:#ffffff;fill-opacity:1;stroke:#000000;stroke-width:0.68488342;stroke-miterlimit:4;stroke-dasharray:none;stroke-dashoffset:0;stroke-opacity:1"
       d="m 230.32038,249.94663 c -0.86771,-1.35221 -1.45711,-2.77274 -1.30976,-3.15672 0.21515,-0.56068 2.18136,-0.69815 9.98504,-0.69815 8.00904,0 10.16891,-0.15775 12.28723,-0.89739 3.15147,-1.10038 5.1993,-3.14411 5.59524,-5.58403 0.26776,-1.65002 0.0929,-2.04667 -1.68624,-3.82585 l -1.98498,-1.98498 3.25444,-2.13968 c 3.61611,-2.37745 4.05612,-2.33808 6.01478,0.53814 0.85196,1.25109 1.13642,2.39284 1.13642,4.56143 0,5.19429 -0.34326,5.93192 -4.838,10.39639 -5.10437,5.07001 -5.72349,5.24942 -18.11518,5.24942 l -8.76132,0 -1.57767,-2.45858 z"
       id="path4345"
       inkscape:connector-curvature="0" />
    <path
       style="fill:#ffffff;fill-opacity:1;stroke:#000000;stroke-width:0.68488342;stroke-miterlimit:4;stroke-dasharray:none;stroke-dashoffset:0;stroke-opacity:1"
       d="m 238.98323,268.89124 c -3.41233,-3.70193 -3.11109,-4.15107 3.03731,-4.52846 6.56889,-0.40321 13.92078,-1.67757 15.44692,-2.67753 2.50606,-1.64204 3.40002,-6.62367 1.5994,-8.91278 -0.55558,-0.70631 -1.01015,-1.51724 -1.01015,-1.80207 0,-0.28483 1.0313,-1.36294 2.29177,-2.3958 l 2.29178,-1.87794 1.54255,1.46531 c 2.72573,2.58925 3.59711,4.9296 3.38671,9.09599 -0.23166,4.58755 -1.04976,5.79689 -5.77182,8.53215 -1.91865,1.11138 -4.05666,2.39 -4.75114,2.84138 -1.50602,0.97883 -5.73594,1.79779 -11.62361,2.25047 l -4.3,0.33061 -2.13972,-2.32133 z"
       id="path4347"
       inkscape:connector-curvature="0" />
    <path
       style="fill:#ffffff;fill-opacity:1;stroke:#000000;stroke-width:0.68488342;stroke-miterlimit:4;stroke-dasharray:none;stroke-dashoffset:0;stroke-opacity:1"
       d="m 251.23661,284.59489 c -0.45894,-1.45349 -0.92341,-2.9271 -1.03216,-3.27468 -0.11353,-0.36284 1.07699,-1.27543 2.79573,-2.14305 2.93652,-1.48235 3.01328,-1.57526 4.03548,-4.88476 0.57311,-1.85552 1.30713,-3.69311 1.63115,-4.08354 0.81315,-0.97978 5.25632,-3.18258 5.64184,-2.79706 1.12192,1.12193 -0.29437,11.21872 -1.86761,13.31429 -0.66641,0.88767 -5.27499,3.91224 -8.3565,5.48431 l -2.0135,1.02721 -0.83443,-2.64272 z"
       id="path4349"
       inkscape:connector-curvature="0" />
    <path
       style="fill:#ffffff;fill-opacity:1;stroke:#000000;stroke-width:0.68488342;stroke-miterlimit:4;stroke-dasharray:none;stroke-dashoffset:0;stroke-opacity:1"
       d="m 250.23546,300.90456 c -0.16759,-0.27117 -0.43995,-1.63488 -0.60523,-3.03045 l -0.30052,-2.53742 2.08269,0 c 1.58033,0 2.47463,-0.3502 3.70763,-1.45188 1.60885,-1.43751 1.61812,-1.47255 0.93645,-3.53805 -0.37867,-1.14738 -0.59492,-2.17148 -0.48055,-2.27578 0.67427,-0.6149 5.58886,-3.42715 5.72065,-3.27351 1.44214,1.68117 1.82785,9.32225 0.61688,12.22053 -0.37892,0.90687 -1.41914,2.26327 -2.3116,3.01423 -1.44191,1.21329 -2.03698,1.36538 -5.34217,1.36538 -2.04573,0 -3.85663,-0.22187 -4.02423,-0.49305 z"
       id="path4351"
       inkscape:connector-curvature="0" />
    <path
       style="fill:#ffffff;fill-rule:evenodd;stroke:none;stroke-width:1px;stroke-linecap:butt;stroke-linejoin:miter;stroke-opacity:1;fill-opacity:1"
       d="m 257.08382,139.43684 -5.05076,-17.93021 12.50064,-0.75761 24.875,0.12627 -15.15228,18.30901 z"
       id="path4355"
       inkscape:connector-curvature="0" />
    <path
       style="fill:none;fill-rule:evenodd;stroke:none;stroke-width:1px;stroke-linecap:butt;stroke-linejoin:miter;stroke-opacity:1"
       d="m 199.28571,113.07649 75,266.42857 130.71429,1.42857 21.42857,-20.71428 -0.71428,-230 -31.42858,-17.85715 z"
       id="path4357"
       inkscape:connector-curvature="0" />
  </g>
</svg>
